<svg xmlns="http://www.w3.org/2000/svg" xmlns:xlink="http://www.w3.org/1999/xlink" width="549" height="266" viewBox="0 0 549 266">
  <defs>
    <clipPath id="clip-path">
      <rect id="Rectángulo_405360" data-name="Rectángulo 405360" width="63" height="63" transform="translate(0 -0.432)" fill="none"/>
    </clipPath>
    <clipPath id="clip-path-2">
      <rect id="Rectángulo_405328" data-name="Rectángulo 405328" width="68" height="68" transform="translate(0.054)" fill="none"/>
    </clipPath>
  </defs>
  <g id="Grupo_1144479" data-name="Grupo 1144479" transform="translate(-556 -4628)">
    <path id="Trazado_979229" data-name="Trazado 979229" d="M133,0A133,133,0,1,1,0,133,133,133,0,0,1,133,0Z" transform="translate(556 4628)" fill="#ba9c5a"/>
    <path id="Trazado_979230" data-name="Trazado 979230" d="M121,0A121,121,0,1,1,0,121,121,121,0,0,1,121,0Z" transform="translate(568 4640)" fill="#e9e0cc"/>
    <path id="Trazado_979231" data-name="Trazado 979231" d="M28.684,22H25.061l-2.178-3.6q-.244-.41-.469-.732a4.069,4.069,0,0,0-.454-.552,1.806,1.806,0,0,0-.479-.352,1.215,1.215,0,0,0-.542-.122h-.85V22H16.936V8h5q5.1,0,5.1,3.809a3.944,3.944,0,0,1-.225,1.353,3.757,3.757,0,0,1-.635,1.118,4.024,4.024,0,0,1-.991.859,5.112,5.112,0,0,1-1.294.566v.039a2.007,2.007,0,0,1,.605.317,4.336,4.336,0,0,1,.566.513,7.153,7.153,0,0,1,.522.63q.249.337.454.659ZM20.091,10.359v3.9h1.367a2.267,2.267,0,0,0,1.631-.586,1.955,1.955,0,0,0,.625-1.475q0-1.836-2.2-1.836Zm18.088,7.52H31.655q.156,2.178,2.744,2.178a5.357,5.357,0,0,0,2.9-.781V21.5a7.619,7.619,0,0,1-3.6.742,5.073,5.073,0,0,1-3.76-1.343A5.073,5.073,0,0,1,28.6,17.156a5.352,5.352,0,0,1,1.445-3.945A4.815,4.815,0,0,1,33.6,11.756a4.37,4.37,0,0,1,3.384,1.3,5,5,0,0,1,1.2,3.525Zm-2.861-1.895q0-2.148-1.738-2.148a1.66,1.66,0,0,0-1.284.615,2.792,2.792,0,0,0-.659,1.533Zm10.744,5.9A4.561,4.561,0,0,1,44,22.244q-3.262,0-3.262-3.389v-4.58H39.118V12h1.621V9.842l3.076-.879V12h2.246v2.275H43.815v4.043q0,1.562,1.24,1.563a2.091,2.091,0,0,0,1.006-.283Zm6.428.361a5.376,5.376,0,0,1-3.931-1.4,5.081,5.081,0,0,1-1.431-3.8,5.081,5.081,0,0,1,1.484-3.882,5.609,5.609,0,0,1,4.014-1.4,5.311,5.311,0,0,1,3.906,1.4,4.981,4.981,0,0,1,1.416,3.706,5.288,5.288,0,0,1-1.46,3.936A5.435,5.435,0,0,1,52.489,22.244Zm.078-8.125a2.058,2.058,0,0,0-1.7.752A3.316,3.316,0,0,0,50.263,17q0,2.881,2.324,2.881,2.217,0,2.217-2.959Q54.8,14.119,52.567,14.119ZM59.3,21.736v-2.5a6.57,6.57,0,0,0,1.519.684,5.035,5.035,0,0,0,1.431.225,3.068,3.068,0,0,0,1.294-.225.726.726,0,0,0,.474-.684.632.632,0,0,0-.215-.488,2,2,0,0,0-.552-.342,6.261,6.261,0,0,0-.737-.264q-.4-.117-.771-.264a7.392,7.392,0,0,1-1.05-.483,3.034,3.034,0,0,1-.762-.6A2.361,2.361,0,0,1,59.459,16a3.157,3.157,0,0,1-.161-1.064,2.74,2.74,0,0,1,.366-1.445,2.991,2.991,0,0,1,.977-.991,4.462,4.462,0,0,1,1.4-.566,7.281,7.281,0,0,1,1.636-.181,9.076,9.076,0,0,1,1.348.1,10.059,10.059,0,0,1,1.348.3v2.383a4.87,4.87,0,0,0-1.255-.513,5.294,5.294,0,0,0-1.313-.171,2.91,2.91,0,0,0-.571.054,1.882,1.882,0,0,0-.474.156.87.87,0,0,0-.322.264.607.607,0,0,0-.117.366.677.677,0,0,0,.176.469,1.527,1.527,0,0,0,.459.337,4.531,4.531,0,0,0,.63.254q.347.112.688.229a8.951,8.951,0,0,1,1.113.469,3.56,3.56,0,0,1,.854.6,2.339,2.339,0,0,1,.547.8,3.2,3.2,0,0,1-.2,2.612,3.088,3.088,0,0,1-1.025,1.025,4.65,4.65,0,0,1-1.475.576,8.175,8.175,0,0,1-1.733.181A8.936,8.936,0,0,1,59.3,21.736Zm23.959-3.857H76.733q.156,2.178,2.744,2.178a5.357,5.357,0,0,0,2.9-.781V21.5a7.619,7.619,0,0,1-3.6.742,5.073,5.073,0,0,1-3.76-1.343,5.073,5.073,0,0,1-1.338-3.745,5.352,5.352,0,0,1,1.445-3.945,4.815,4.815,0,0,1,3.555-1.455,4.37,4.37,0,0,1,3.384,1.3,5,5,0,0,1,1.2,3.525ZM80.4,15.984q0-2.148-1.738-2.148a1.66,1.66,0,0,0-1.284.615,2.792,2.792,0,0,0-.659,1.533ZM94.753,22H91.677V16.443q0-2.324-1.66-2.324a1.647,1.647,0,0,0-1.318.615,2.344,2.344,0,0,0-.518,1.563V22H85.095V12h3.086v1.582h.039a3.536,3.536,0,0,1,3.213-1.826q3.32,0,3.32,4.121ZM105.8,22h-3.086V7.2H105.8Zm10.92,0H113.8V20.564h-.039a3.259,3.259,0,0,1-2.979,1.68,3.116,3.116,0,0,1-2.29-.825,2.957,2.957,0,0,1-.835-2.2q0-2.91,3.447-3.359l2.715-.361q0-1.641-1.777-1.641a6.067,6.067,0,0,0-3.4,1.064V12.6a7.646,7.646,0,0,1,1.763-.586,9.266,9.266,0,0,1,2.036-.254q4.277,0,4.277,4.268Zm-2.9-4.062v-.674l-1.816.234q-1.5.2-1.5,1.357a1.122,1.122,0,0,0,.366.864,1.407,1.407,0,0,0,.991.337,1.827,1.827,0,0,0,1.416-.6A2.169,2.169,0,0,0,113.822,17.938Zm4.689,3.8v-2.5a6.57,6.57,0,0,0,1.519.684,5.035,5.035,0,0,0,1.431.225,3.068,3.068,0,0,0,1.294-.225.726.726,0,0,0,.474-.684.632.632,0,0,0-.215-.488,2,2,0,0,0-.552-.342,6.261,6.261,0,0,0-.737-.264q-.4-.117-.771-.264a7.392,7.392,0,0,1-1.05-.483,3.034,3.034,0,0,1-.762-.6,2.361,2.361,0,0,1-.469-.791,3.157,3.157,0,0,1-.161-1.064,2.74,2.74,0,0,1,.366-1.445,2.991,2.991,0,0,1,.977-.991,4.462,4.462,0,0,1,1.4-.566,7.281,7.281,0,0,1,1.636-.181,9.076,9.076,0,0,1,1.348.1,10.059,10.059,0,0,1,1.348.3v2.383a4.87,4.87,0,0,0-1.255-.513,5.294,5.294,0,0,0-1.313-.171,2.91,2.91,0,0,0-.571.054,1.882,1.882,0,0,0-.474.156.87.87,0,0,0-.322.264.607.607,0,0,0-.117.366.677.677,0,0,0,.176.469,1.527,1.527,0,0,0,.459.337,4.531,4.531,0,0,0,.63.254q.347.112.688.229a8.951,8.951,0,0,1,1.113.469,3.56,3.56,0,0,1,.854.6,2.339,2.339,0,0,1,.547.8,3.2,3.2,0,0,1-.2,2.612,3.088,3.088,0,0,1-1.025,1.025,4.65,4.65,0,0,1-1.475.576,8.175,8.175,0,0,1-1.733.181A8.936,8.936,0,0,1,118.511,21.736ZM17.133,47.838h-.039V53.6H14.008V39h3.086v1.5h.039a3.628,3.628,0,0,1,3.213-1.748,3.615,3.615,0,0,1,3,1.333,5.676,5.676,0,0,1,1.06,3.628,6.152,6.152,0,0,1-1.235,4.014,4.028,4.028,0,0,1-3.286,1.514A3.114,3.114,0,0,1,17.133,47.838Zm-.088-4.1v.8a2.546,2.546,0,0,0,.547,1.689,1.78,1.78,0,0,0,1.436.654,1.892,1.892,0,0,0,1.636-.815,3.937,3.937,0,0,0,.581-2.31q0-2.637-2.051-2.637a1.926,1.926,0,0,0-1.548.718A2.863,2.863,0,0,0,17.045,43.736Zm15.891-1.953a2.677,2.677,0,0,0-1.3-.3,1.871,1.871,0,0,0-1.572.737,3.217,3.217,0,0,0-.566,2.007V49H26.412V39H29.5v1.855h.039a2.67,2.67,0,0,1,2.637-2.031,1.987,1.987,0,0,1,.762.117Zm6.125,7.461a5.376,5.376,0,0,1-3.931-1.4,5.081,5.081,0,0,1-1.431-3.8,5.081,5.081,0,0,1,1.484-3.882,5.609,5.609,0,0,1,4.014-1.4,5.311,5.311,0,0,1,3.906,1.4,4.981,4.981,0,0,1,1.416,3.706,5.288,5.288,0,0,1-1.46,3.936A5.435,5.435,0,0,1,39.06,49.244Zm.078-8.125a2.058,2.058,0,0,0-1.7.752A3.316,3.316,0,0,0,36.834,44q0,2.881,2.324,2.881,2.217,0,2.217-2.959Q41.375,41.119,39.139,41.119Zm10.51,6.719h-.039V53.6H46.523V39h3.086v1.5h.039a3.927,3.927,0,0,1,6.216-.415,5.676,5.676,0,0,1,1.06,3.628,6.152,6.152,0,0,1-1.235,4.014A4.028,4.028,0,0,1,52.4,49.244,3.114,3.114,0,0,1,49.648,47.838Zm-.088-4.1v.8a2.546,2.546,0,0,0,.547,1.689,1.78,1.78,0,0,0,1.436.654,1.892,1.892,0,0,0,1.636-.815,3.937,3.937,0,0,0,.581-2.31q0-2.637-2.051-2.637a1.926,1.926,0,0,0-1.548.718A2.863,2.863,0,0,0,49.56,43.736Zm10.93-6.318a1.8,1.8,0,0,1-1.279-.464,1.5,1.5,0,0,1-.5-1.138,1.441,1.441,0,0,1,.5-1.133,2.089,2.089,0,0,1,2.563,0,1.448,1.448,0,0,1,.493,1.133,1.489,1.489,0,0,1-.493,1.152A1.833,1.833,0,0,1,60.49,37.418ZM62.014,49H58.928V39h3.086ZM73.6,44.879H67.074q.156,2.178,2.744,2.178a5.358,5.358,0,0,0,2.9-.781V48.5a7.619,7.619,0,0,1-3.6.742,4.654,4.654,0,0,1-5.1-5.088,5.352,5.352,0,0,1,1.445-3.945,4.815,4.815,0,0,1,3.555-1.455,4.37,4.37,0,0,1,3.384,1.3,5,5,0,0,1,1.2,3.525Zm-2.861-1.895q0-2.148-1.738-2.148a1.66,1.66,0,0,0-1.284.615,2.792,2.792,0,0,0-.659,1.533ZM85.221,49H82.135V47.623H82.1A3.46,3.46,0,0,1,79,49.244a3.791,3.791,0,0,1-3.018-1.323,5.478,5.478,0,0,1-1.143-3.7A5.962,5.962,0,0,1,76.1,40.25a4.109,4.109,0,0,1,3.3-1.494,2.808,2.808,0,0,1,2.7,1.387h.039V34.2h3.086Zm-3.027-4.863v-.752a2.366,2.366,0,0,0-.566-1.621,2,2,0,0,0-3.076.161,3.741,3.741,0,0,0-.576,2.212,3.237,3.237,0,0,0,.557,2.031,1.976,1.976,0,0,0,3.071-.039A3.134,3.134,0,0,0,82.193,44.137ZM96.141,49h-2.92V47.564h-.039a3.259,3.259,0,0,1-2.979,1.68,3.116,3.116,0,0,1-2.29-.825,2.957,2.957,0,0,1-.835-2.2q0-2.91,3.447-3.359L93.24,42.5q0-1.641-1.777-1.641a6.067,6.067,0,0,0-3.4,1.064V39.6a7.645,7.645,0,0,1,1.763-.586,9.266,9.266,0,0,1,2.036-.254q4.277,0,4.277,4.268Zm-2.9-4.062v-.674l-1.816.234q-1.5.2-1.5,1.357a1.122,1.122,0,0,0,.366.864,1.407,1.407,0,0,0,.991.337,1.827,1.827,0,0,0,1.416-.6A2.169,2.169,0,0,0,93.24,44.938ZM108.369,49h-3.086V47.623h-.039a3.46,3.46,0,0,1-3.1,1.621,3.791,3.791,0,0,1-3.018-1.323,5.478,5.478,0,0,1-1.143-3.7,5.962,5.962,0,0,1,1.26-3.975,4.109,4.109,0,0,1,3.3-1.494,2.808,2.808,0,0,1,2.7,1.387h.039V34.2h3.086Zm-3.027-4.863v-.752a2.366,2.366,0,0,0-.566-1.621,2,2,0,0,0-3.076.161,3.741,3.741,0,0,0-.576,2.212,3.237,3.237,0,0,0,.557,2.031,1.976,1.976,0,0,0,3.071-.039A3.134,3.134,0,0,0,105.342,44.137Zm14.611.742H113.43q.156,2.178,2.744,2.178a5.358,5.358,0,0,0,2.9-.781V48.5a7.619,7.619,0,0,1-3.6.742,4.654,4.654,0,0,1-5.1-5.088,5.352,5.352,0,0,1,1.445-3.945,4.815,4.815,0,0,1,3.555-1.455,4.37,4.37,0,0,1,3.384,1.3,5,5,0,0,1,1.2,3.525Zm-2.861-1.895q0-2.148-1.738-2.148a1.66,1.66,0,0,0-1.284.615,2.792,2.792,0,0,0-.659,1.533Zm4.045,5.752v-2.5a6.57,6.57,0,0,0,1.519.684,5.035,5.035,0,0,0,1.431.225,3.069,3.069,0,0,0,1.294-.225.726.726,0,0,0,.474-.684.632.632,0,0,0-.215-.488,2,2,0,0,0-.552-.342,6.261,6.261,0,0,0-.737-.264q-.4-.117-.771-.264a7.392,7.392,0,0,1-1.05-.483,3.034,3.034,0,0,1-.762-.6A2.361,2.361,0,0,1,121.3,43a3.157,3.157,0,0,1-.161-1.064,2.74,2.74,0,0,1,.366-1.445,2.991,2.991,0,0,1,.977-.991,4.462,4.462,0,0,1,1.4-.566,7.281,7.281,0,0,1,1.636-.181,9.076,9.076,0,0,1,1.348.1,10.059,10.059,0,0,1,1.348.3v2.383a4.87,4.87,0,0,0-1.255-.513,5.293,5.293,0,0,0-1.313-.171,2.91,2.91,0,0,0-.571.054,1.882,1.882,0,0,0-.474.156.87.87,0,0,0-.322.264.607.607,0,0,0-.117.366.677.677,0,0,0,.176.469,1.527,1.527,0,0,0,.459.337,4.531,4.531,0,0,0,.63.254q.347.112.688.229a8.952,8.952,0,0,1,1.113.469,3.56,3.56,0,0,1,.854.6,2.339,2.339,0,0,1,.547.8,3.2,3.2,0,0,1-.2,2.612,3.088,3.088,0,0,1-1.025,1.025,4.65,4.65,0,0,1-1.475.576,8.175,8.175,0,0,1-1.733.181A8.936,8.936,0,0,1,121.137,48.736Zm-83.248,26.9a6.1,6.1,0,0,1-3.018.605,5.1,5.1,0,0,1-3.73-1.4,4.823,4.823,0,0,1-1.426-3.6,5.313,5.313,0,0,1,1.528-4.019,5.648,5.648,0,0,1,4.087-1.47,5.244,5.244,0,0,1,2.559.469v2.617a3.518,3.518,0,0,0-2.158-.723,2.844,2.844,0,0,0-2.1.776,2.9,2.9,0,0,0-.776,2.144,2.85,2.85,0,0,0,.742,2.085,2.728,2.728,0,0,0,2.041.757,4.073,4.073,0,0,0,2.256-.723Zm6.789.605a5.376,5.376,0,0,1-3.931-1.4,5.8,5.8,0,0,1,.054-7.686,5.609,5.609,0,0,1,4.014-1.4,5.311,5.311,0,0,1,3.906,1.4,4.981,4.981,0,0,1,1.416,3.706,5.288,5.288,0,0,1-1.46,3.936A5.435,5.435,0,0,1,44.678,76.244Zm.078-8.125a2.058,2.058,0,0,0-1.7.752A3.316,3.316,0,0,0,42.451,71q0,2.881,2.324,2.881,2.217,0,2.217-2.959Q46.992,68.119,44.756,68.119ZM68.019,76H64.943V70.3q0-2.178-1.6-2.178a1.471,1.471,0,0,0-1.24.654,2.689,2.689,0,0,0-.479,1.631V76H58.537V70.238q0-2.119-1.572-2.119a1.507,1.507,0,0,0-1.265.625,2.75,2.75,0,0,0-.474,1.7V76H52.141V66h3.086v1.563h.039A3.789,3.789,0,0,1,58.5,65.756a2.88,2.88,0,0,1,2.9,1.865,3.7,3.7,0,0,1,3.359-1.865q3.262,0,3.262,4.023Zm11.945,0H76.889V74.477H76.84a3.49,3.49,0,0,1-3.057,1.768q-3.477,0-3.477-4.209V66h3.076v5.762q0,2.119,1.68,2.119a1.661,1.661,0,0,0,1.328-.581,2.343,2.343,0,0,0,.5-1.577V66h3.076Zm12.258,0H89.147V70.443q0-2.324-1.66-2.324a1.647,1.647,0,0,0-1.318.615A2.344,2.344,0,0,0,85.65,70.3V76H82.564V66H85.65v1.582h.039A3.536,3.536,0,0,1,88.9,65.756q3.32,0,3.32,4.121Zm11.428-4.121H97.127q.156,2.178,2.744,2.178a5.357,5.357,0,0,0,2.9-.781V75.5a7.619,7.619,0,0,1-3.6.742,4.654,4.654,0,0,1-5.1-5.088,5.352,5.352,0,0,1,1.445-3.945,4.815,4.815,0,0,1,3.555-1.455,4.37,4.37,0,0,1,3.384,1.3,5,5,0,0,1,1.2,3.525Zm-2.861-1.895q0-2.148-1.738-2.148a1.66,1.66,0,0,0-1.284.615,2.792,2.792,0,0,0-.659,1.533Zm4.045,5.752v-2.5a6.57,6.57,0,0,0,1.519.684,5.035,5.035,0,0,0,1.431.225,3.068,3.068,0,0,0,1.294-.225.726.726,0,0,0,.474-.684.632.632,0,0,0-.215-.488,2,2,0,0,0-.552-.342,6.261,6.261,0,0,0-.737-.264q-.4-.117-.771-.264a7.392,7.392,0,0,1-1.05-.483,3.034,3.034,0,0,1-.762-.6A2.361,2.361,0,0,1,105,70a3.157,3.157,0,0,1-.161-1.064,2.74,2.74,0,0,1,.366-1.445,2.991,2.991,0,0,1,.977-.991,4.462,4.462,0,0,1,1.4-.566,7.281,7.281,0,0,1,1.636-.181,9.076,9.076,0,0,1,1.348.1,10.058,10.058,0,0,1,1.348.3v2.383a4.869,4.869,0,0,0-1.255-.513,5.294,5.294,0,0,0-1.313-.171,2.91,2.91,0,0,0-.571.054,1.881,1.881,0,0,0-.474.156.87.87,0,0,0-.322.264.607.607,0,0,0-.117.366.677.677,0,0,0,.176.469,1.527,1.527,0,0,0,.459.337,4.531,4.531,0,0,0,.63.254q.347.112.688.229a8.95,8.95,0,0,1,1.113.469,3.56,3.56,0,0,1,.854.6,2.339,2.339,0,0,1,.547.8,3.2,3.2,0,0,1-.2,2.612,3.088,3.088,0,0,1-1.025,1.025,4.65,4.65,0,0,1-1.475.576,8.175,8.175,0,0,1-1.733.181A8.936,8.936,0,0,1,104.834,75.736Z" transform="translate(618 4767.369)" fill="#0b0a0a"/>
    <g id="Grupo_1144471" data-name="Grupo 1144471" transform="translate(659 4680.717)">
      <rect id="Rectángulo_405329" data-name="Rectángulo 405329" width="19" height="6" transform="translate(22 -0.717)" fill="#fbc250"/>
      <rect id="Rectángulo_405330" data-name="Rectángulo 405330" width="22" height="53" transform="translate(3 8.283)" fill="#fed993"/>
      <rect id="Rectángulo_405331" data-name="Rectángulo 405331" width="24" height="53" transform="translate(36 8.283)" fill="#fed993"/>
      <rect id="Rectángulo_405332" data-name="Rectángulo 405332" width="11" height="5" transform="translate(7 52.283)" fill="#9bb249"/>
      <rect id="Rectángulo_405333" data-name="Rectángulo 405333" width="5.214" height="5.214" transform="translate(6.704 42.539)" fill="#738520"/>
      <rect id="Rectángulo_405334" data-name="Rectángulo 405334" width="4.469" height="5.214" transform="translate(15.289 42.539)" fill="#738520"/>
      <rect id="Rectángulo_405335" data-name="Rectángulo 405335" width="5.214" height="6.704" transform="translate(6.704 32.621)" fill="#738520"/>
      <rect id="Rectángulo_405336" data-name="Rectángulo 405336" width="4.469" height="6.704" transform="translate(15.289 32.621)" fill="#738520"/>
      <rect id="Rectángulo_405337" data-name="Rectángulo 405337" width="5.214" height="3.724" transform="translate(6.704 24.934)" fill="#738520"/>
      <rect id="Rectángulo_405338" data-name="Rectángulo 405338" width="4.469" height="3.724" transform="translate(15.289 24.934)" fill="#738520"/>
      <rect id="Rectángulo_405339" data-name="Rectángulo 405339" width="5.214" height="5.214" transform="translate(6.704 14.244)" fill="#738520"/>
      <rect id="Rectángulo_405340" data-name="Rectángulo 405340" width="4.469" height="5.214" transform="translate(15.289 14.244)" fill="#738520"/>
      <rect id="Rectángulo_405341" data-name="Rectángulo 405341" width="10" height="5" transform="translate(45 52.283)" fill="#9bb249"/>
      <rect id="Rectángulo_405342" data-name="Rectángulo 405342" width="4.469" height="5.214" transform="translate(42.81 42.539)" fill="#738520"/>
      <rect id="Rectángulo_405343" data-name="Rectángulo 405343" width="4.469" height="5.214" transform="translate(50.65 42.539)" fill="#738520"/>
      <rect id="Rectángulo_405344" data-name="Rectángulo 405344" width="4.469" height="6.704" transform="translate(42.81 32.621)" fill="#738520"/>
      <rect id="Rectángulo_405345" data-name="Rectángulo 405345" width="4.469" height="6.704" transform="translate(50.65 32.621)" fill="#738520"/>
      <rect id="Rectángulo_405346" data-name="Rectángulo 405346" width="4.469" height="3.724" transform="translate(42.81 24.934)" fill="#738520"/>
      <rect id="Rectángulo_405347" data-name="Rectángulo 405347" width="4.469" height="3.724" transform="translate(50.65 24.934)" fill="#738520"/>
      <rect id="Rectángulo_405348" data-name="Rectángulo 405348" width="4.469" height="5.214" transform="translate(42.81 14.244)" fill="#738520"/>
      <rect id="Rectángulo_405349" data-name="Rectángulo 405349" width="4.469" height="5.214" transform="translate(50.65 14.244)" fill="#738520"/>
      <rect id="Rectángulo_405350" data-name="Rectángulo 405350" width="24" height="4" transform="translate(1 5.283)" fill="#da9d41"/>
      <rect id="Rectángulo_405351" data-name="Rectángulo 405351" width="27" height="4" transform="translate(36 5.283)" fill="#da9d41"/>
      <rect id="Rectángulo_405352" data-name="Rectángulo 405352" width="14.152" height="56.609" transform="translate(23.055 4.929)" fill="#fbebe3"/>
      <path id="Trazado_979169" data-name="Trazado 979169" d="M168,365.074l1.015,1.015h16.238l1.015-1.015L177.134,360Z" transform="translate(-145.946 -312.94)" fill="#4c4c4c"/>
      <rect id="Rectángulo_405353" data-name="Rectángulo 405353" width="3.724" height="3.724" transform="translate(29.804 12.706)" fill="#9bb249"/>
      <rect id="Rectángulo_405354" data-name="Rectángulo 405354" width="3.724" height="5.959" transform="translate(29.804 20.369)" fill="#9bb249"/>
      <rect id="Rectángulo_405355" data-name="Rectángulo 405355" width="3.724" height="3.724" transform="translate(29.804 28.755)" fill="#9bb249"/>
      <rect id="Rectángulo_405356" data-name="Rectángulo 405356" width="3.724" height="3.724" transform="translate(29.804 37.161)" fill="#9bb249"/>
      <rect id="Rectángulo_405357" data-name="Rectángulo 405357" width="19" height="9" transform="translate(22 52.283)" fill="#a6adb9"/>
      <rect id="Rectángulo_405358" data-name="Rectángulo 405358" width="9.683" height="5.214" transform="translate(26.059 56.324)" fill="#d63909"/>
      <rect id="Rectángulo_405359" data-name="Rectángulo 405359" width="3.724" height="5.214" transform="translate(32.097 56.324)" fill="#901c09"/>
      <g id="Grupo_1144465" data-name="Grupo 1144465" transform="translate(0 -0.285)">
        <g id="Grupo_1144464" data-name="Grupo 1144464" clip-path="url(#clip-path)">
          <path id="Trazado_979170" data-name="Trazado 979170" d="M59.436,392H49.04A1.039,1.039,0,0,0,48,393.04v5.2a1.039,1.039,0,0,0,1.04,1.04h10.4a1.039,1.039,0,0,0,1.04-1.04v-5.2a1.039,1.039,0,0,0-1.04-1.04m-1.04,5.2H50.079v-3.119H58.4Z" transform="translate(-41.762 -340.868)"/>
          <path id="Trazado_979171" data-name="Trazado 979171" d="M49.04,327.277H53.2a1.039,1.039,0,0,0,1.04-1.04v-5.2A1.039,1.039,0,0,0,53.2,320H49.04A1.039,1.039,0,0,0,48,321.04v5.2a1.039,1.039,0,0,0,1.04,1.04m1.04-5.2h2.079V325.2H50.079Z" transform="translate(-41.762 -278.224)"/>
          <path id="Trazado_979172" data-name="Trazado 979172" d="M118.238,326.238v-5.2A1.039,1.039,0,0,0,117.2,320H113.04a1.039,1.039,0,0,0-1.04,1.04v5.2a1.039,1.039,0,0,0,1.04,1.04H117.2a1.039,1.039,0,0,0,1.04-1.04m-2.079-1.04h-2.079v-3.119h2.079Z" transform="translate(-97.445 -278.224)"/>
          <path id="Trazado_979173" data-name="Trazado 979173" d="M49.04,255.277H53.2a1.039,1.039,0,0,0,1.04-1.04v-5.2A1.039,1.039,0,0,0,53.2,248H49.04A1.039,1.039,0,0,0,48,249.04v5.2a1.039,1.039,0,0,0,1.04,1.04m1.04-5.2h2.079V253.2H50.079Z" transform="translate(-41.762 -215.581)"/>
          <path id="Trazado_979174" data-name="Trazado 979174" d="M113.04,255.277H117.2a1.039,1.039,0,0,0,1.04-1.04v-5.2A1.039,1.039,0,0,0,117.2,248H113.04a1.039,1.039,0,0,0-1.04,1.04v5.2a1.039,1.039,0,0,0,1.04,1.04m1.04-5.2h2.079V253.2h-2.079Z" transform="translate(-97.445 -215.581)"/>
          <path id="Trazado_979175" data-name="Trazado 979175" d="M49.04,183.277H53.2a1.039,1.039,0,0,0,1.04-1.04v-5.2A1.039,1.039,0,0,0,53.2,176H49.04A1.039,1.039,0,0,0,48,177.04v5.2a1.039,1.039,0,0,0,1.04,1.04m1.04-5.2h2.079V181.2H50.079Z" transform="translate(-41.762 -152.937)"/>
          <path id="Trazado_979176" data-name="Trazado 979176" d="M113.04,183.277H117.2a1.039,1.039,0,0,0,1.04-1.04v-5.2A1.039,1.039,0,0,0,117.2,176H113.04a1.039,1.039,0,0,0-1.04,1.04v5.2a1.039,1.039,0,0,0,1.04,1.04m1.04-5.2h2.079V181.2h-2.079Z" transform="translate(-97.445 -152.937)"/>
          <path id="Trazado_979177" data-name="Trazado 979177" d="M49.04,111.277H53.2a1.039,1.039,0,0,0,1.04-1.04v-5.2A1.039,1.039,0,0,0,53.2,104H49.04A1.039,1.039,0,0,0,48,105.04v5.2a1.039,1.039,0,0,0,1.04,1.04m1.04-5.2h2.079V109.2H50.079Z" transform="translate(-41.762 -90.294)"/>
          <path id="Trazado_979178" data-name="Trazado 979178" d="M113.04,111.277H117.2a1.039,1.039,0,0,0,1.04-1.04v-5.2A1.039,1.039,0,0,0,117.2,104H113.04a1.039,1.039,0,0,0-1.04,1.04v5.2a1.039,1.039,0,0,0,1.04,1.04m1.04-5.2h2.079V109.2h-2.079Z" transform="translate(-97.445 -90.294)"/>
          <path id="Trazado_979179" data-name="Trazado 979179" d="M217.04,94.238H221.2a1.039,1.039,0,0,0,1.04-1.04V89.04A1.039,1.039,0,0,0,221.2,88H217.04A1.039,1.039,0,0,0,216,89.04V93.2a1.039,1.039,0,0,0,1.04,1.04m1.04-4.158h2.079v2.079h-2.079Z" transform="translate(-187.93 -76.373)"/>
          <path id="Trazado_979180" data-name="Trazado 979180" d="M217.04,158.238H221.2a1.039,1.039,0,0,0,1.04-1.04V153.04A1.039,1.039,0,0,0,221.2,152H217.04a1.039,1.039,0,0,0-1.04,1.04V157.2a1.039,1.039,0,0,0,1.04,1.04m1.04-4.158h2.079v2.079h-2.079Z" transform="translate(-187.93 -132.056)"/>
          <path id="Trazado_979181" data-name="Trazado 979181" d="M217.04,222.238H221.2a1.039,1.039,0,0,0,1.04-1.04V217.04A1.039,1.039,0,0,0,221.2,216H217.04a1.039,1.039,0,0,0-1.04,1.04V221.2a1.039,1.039,0,0,0,1.04,1.04m1.04-4.158h2.079v2.079h-2.079Z" transform="translate(-187.93 -187.739)"/>
          <path id="Trazado_979182" data-name="Trazado 979182" d="M217.04,286.238H221.2a1.039,1.039,0,0,0,1.04-1.04V281.04A1.039,1.039,0,0,0,221.2,280H217.04a1.039,1.039,0,0,0-1.04,1.04V285.2a1.039,1.039,0,0,0,1.04,1.04m1.04-4.158h2.079v2.079h-2.079Z" transform="translate(-187.93 -243.422)"/>
          <path id="Trazado_979183" data-name="Trazado 979183" d="M347.436,392h-10.4a1.039,1.039,0,0,0-1.04,1.04v5.2a1.039,1.039,0,0,0,1.04,1.04h10.4a1.039,1.039,0,0,0,1.04-1.04v-5.2a1.039,1.039,0,0,0-1.04-1.04m-1.04,5.2h-8.317v-3.119H346.4Z" transform="translate(-292.336 -340.868)"/>
          <path id="Trazado_979184" data-name="Trazado 979184" d="M321.04,327.277H325.2a1.039,1.039,0,0,0,1.04-1.04v-5.2A1.039,1.039,0,0,0,325.2,320H321.04a1.039,1.039,0,0,0-1.04,1.04v5.2a1.039,1.039,0,0,0,1.04,1.04m1.04-5.2h2.079V325.2h-2.079Z" transform="translate(-278.416 -278.224)"/>
          <path id="Trazado_979185" data-name="Trazado 979185" d="M385.04,327.277H389.2a1.039,1.039,0,0,0,1.04-1.04v-5.2A1.039,1.039,0,0,0,389.2,320H385.04a1.039,1.039,0,0,0-1.04,1.04v5.2a1.039,1.039,0,0,0,1.04,1.04m1.04-5.2h2.079V325.2h-2.079Z" transform="translate(-334.099 -278.224)"/>
          <path id="Trazado_979186" data-name="Trazado 979186" d="M321.04,255.277H325.2a1.039,1.039,0,0,0,1.04-1.04v-5.2A1.039,1.039,0,0,0,325.2,248H321.04a1.039,1.039,0,0,0-1.04,1.04v5.2a1.039,1.039,0,0,0,1.04,1.04m1.04-5.2h2.079V253.2h-2.079Z" transform="translate(-278.416 -215.581)"/>
          <path id="Trazado_979187" data-name="Trazado 979187" d="M385.04,255.277H389.2a1.039,1.039,0,0,0,1.04-1.04v-5.2A1.039,1.039,0,0,0,389.2,248H385.04a1.039,1.039,0,0,0-1.04,1.04v5.2a1.039,1.039,0,0,0,1.04,1.04m1.04-5.2h2.079V253.2h-2.079Z" transform="translate(-334.099 -215.581)"/>
          <path id="Trazado_979188" data-name="Trazado 979188" d="M321.04,183.277H325.2a1.039,1.039,0,0,0,1.04-1.04v-5.2A1.039,1.039,0,0,0,325.2,176H321.04a1.039,1.039,0,0,0-1.04,1.04v5.2a1.039,1.039,0,0,0,1.04,1.04m1.04-5.2h2.079V181.2h-2.079Z" transform="translate(-278.416 -152.937)"/>
          <path id="Trazado_979189" data-name="Trazado 979189" d="M385.04,183.277H389.2a1.039,1.039,0,0,0,1.04-1.04v-5.2A1.039,1.039,0,0,0,389.2,176H385.04a1.039,1.039,0,0,0-1.04,1.04v5.2a1.039,1.039,0,0,0,1.04,1.04m1.04-5.2h2.079V181.2h-2.079Z" transform="translate(-334.099 -152.937)"/>
          <path id="Trazado_979190" data-name="Trazado 979190" d="M321.04,111.277H325.2a1.039,1.039,0,0,0,1.04-1.04v-5.2A1.039,1.039,0,0,0,325.2,104H321.04a1.039,1.039,0,0,0-1.04,1.04v5.2a1.039,1.039,0,0,0,1.04,1.04m1.04-5.2h2.079V109.2h-2.079Z" transform="translate(-278.416 -90.294)"/>
          <path id="Trazado_979191" data-name="Trazado 979191" d="M385.04,111.277H389.2a1.039,1.039,0,0,0,1.04-1.04v-5.2A1.039,1.039,0,0,0,389.2,104H385.04a1.039,1.039,0,0,0-1.04,1.04v5.2a1.039,1.039,0,0,0,1.04,1.04m1.04-5.2h2.079V109.2h-2.079Z" transform="translate(-334.099 -90.294)"/>
          <path id="Trazado_979192" data-name="Trazado 979192" d="M61.337,4.158H41.584V1.04A1.039,1.039,0,0,0,40.545,0H21.832a1.039,1.039,0,0,0-1.04,1.04V4.158H1.04A1.039,1.039,0,0,0,0,5.2V9.356A1.039,1.039,0,0,0,1.04,10.4h1.04V60.3H0v2.079H62.377V60.3H60.3V10.4h1.04a1.039,1.039,0,0,0,1.04-1.04V5.2a1.039,1.039,0,0,0-1.04-1.04M22.871,2.079H39.505V4.158H22.871Zm14.555,46.98-5.733-3.185a1.037,1.037,0,0,0-1.009,0l-5.733,3.185V6.238H37.426Zm-.893,1.882H25.844l5.344-2.969ZM2.079,6.238H22.871V8.317H2.079ZM4.158,10.4H22.871V50.214l-1.544.858a1.011,1.011,0,0,0-.146.116.819.819,0,0,0-.305.384c0,.011,0,.024-.009.035a1.027,1.027,0,0,0-.068.335c0,.013-.008.024-.008.037V60.3H4.158Zm25.99,49.9H27.03V57.179h3.119Zm2.079-3.119h3.119V60.3H32.228Zm5.2,3.119V56.139a1.039,1.039,0,0,0-1.04-1.04H25.99a1.039,1.039,0,0,0-1.04,1.04V60.3H22.871V53.02H39.505V60.3Zm20.792,0H41.584V51.98c0-.013-.007-.024-.008-.037a1.029,1.029,0,0,0-.067-.334c0-.012,0-.025-.009-.037a1.034,1.034,0,0,0-.2-.3,186.026,186.026,0,0,1-.246-.2l-1.544-.858V10.4H58.218ZM60.3,8.317H39.505V6.238H60.3Z" transform="translate(0 0.191)"/>
        </g>
      </g>
    </g>
    <path id="Trazado_979232" data-name="Trazado 979232" d="M133,0A133,133,0,1,1,0,133,133,133,0,0,1,133,0Z" transform="translate(839 4628)" fill="#ba9c5a"/>
    <path id="Trazado_979233" data-name="Trazado 979233" d="M121,0A121,121,0,1,1,0,121,121,121,0,0,1,121,0Z" transform="translate(851 4640)" fill="#e9e0cc"/>
    <path id="Trazado_979234" data-name="Trazado 979234" d="M28.684,22H25.061l-2.178-3.6q-.244-.41-.469-.732a4.069,4.069,0,0,0-.454-.552,1.806,1.806,0,0,0-.479-.352,1.215,1.215,0,0,0-.542-.122h-.85V22H16.936V8h5q5.1,0,5.1,3.809a3.944,3.944,0,0,1-.225,1.353,3.757,3.757,0,0,1-.635,1.118,4.024,4.024,0,0,1-.991.859,5.112,5.112,0,0,1-1.294.566v.039a2.007,2.007,0,0,1,.605.317,4.336,4.336,0,0,1,.566.513,7.153,7.153,0,0,1,.522.63q.249.337.454.659ZM20.091,10.359v3.9h1.367a2.267,2.267,0,0,0,1.631-.586,1.955,1.955,0,0,0,.625-1.475q0-1.836-2.2-1.836Zm18.088,7.52H31.655q.156,2.178,2.744,2.178a5.357,5.357,0,0,0,2.9-.781V21.5a7.619,7.619,0,0,1-3.6.742,5.073,5.073,0,0,1-3.76-1.343A5.073,5.073,0,0,1,28.6,17.156a5.352,5.352,0,0,1,1.445-3.945A4.815,4.815,0,0,1,33.6,11.756a4.37,4.37,0,0,1,3.384,1.3,5,5,0,0,1,1.2,3.525Zm-2.861-1.895q0-2.148-1.738-2.148a1.66,1.66,0,0,0-1.284.615,2.792,2.792,0,0,0-.659,1.533Zm10.744,5.9A4.561,4.561,0,0,1,44,22.244q-3.262,0-3.262-3.389v-4.58H39.118V12h1.621V9.842l3.076-.879V12h2.246v2.275H43.815v4.043q0,1.562,1.24,1.563a2.091,2.091,0,0,0,1.006-.283Zm6.428.361a5.376,5.376,0,0,1-3.931-1.4,5.081,5.081,0,0,1-1.431-3.8,5.081,5.081,0,0,1,1.484-3.882,5.609,5.609,0,0,1,4.014-1.4,5.311,5.311,0,0,1,3.906,1.4,4.981,4.981,0,0,1,1.416,3.706,5.288,5.288,0,0,1-1.46,3.936A5.435,5.435,0,0,1,52.489,22.244Zm.078-8.125a2.058,2.058,0,0,0-1.7.752A3.316,3.316,0,0,0,50.263,17q0,2.881,2.324,2.881,2.217,0,2.217-2.959Q54.8,14.119,52.567,14.119ZM59.3,21.736v-2.5a6.57,6.57,0,0,0,1.519.684,5.035,5.035,0,0,0,1.431.225,3.068,3.068,0,0,0,1.294-.225.726.726,0,0,0,.474-.684.632.632,0,0,0-.215-.488,2,2,0,0,0-.552-.342,6.261,6.261,0,0,0-.737-.264q-.4-.117-.771-.264a7.392,7.392,0,0,1-1.05-.483,3.034,3.034,0,0,1-.762-.6A2.361,2.361,0,0,1,59.459,16a3.157,3.157,0,0,1-.161-1.064,2.74,2.74,0,0,1,.366-1.445,2.991,2.991,0,0,1,.977-.991,4.462,4.462,0,0,1,1.4-.566,7.281,7.281,0,0,1,1.636-.181,9.076,9.076,0,0,1,1.348.1,10.059,10.059,0,0,1,1.348.3v2.383a4.87,4.87,0,0,0-1.255-.513,5.294,5.294,0,0,0-1.313-.171,2.91,2.91,0,0,0-.571.054,1.882,1.882,0,0,0-.474.156.87.87,0,0,0-.322.264.607.607,0,0,0-.117.366.677.677,0,0,0,.176.469,1.527,1.527,0,0,0,.459.337,4.531,4.531,0,0,0,.63.254q.347.112.688.229a8.951,8.951,0,0,1,1.113.469,3.56,3.56,0,0,1,.854.6,2.339,2.339,0,0,1,.547.8,3.2,3.2,0,0,1-.2,2.612,3.088,3.088,0,0,1-1.025,1.025,4.65,4.65,0,0,1-1.475.576,8.175,8.175,0,0,1-1.733.181A8.936,8.936,0,0,1,59.3,21.736Zm23.959-3.857H76.733q.156,2.178,2.744,2.178a5.357,5.357,0,0,0,2.9-.781V21.5a7.619,7.619,0,0,1-3.6.742,5.073,5.073,0,0,1-3.76-1.343,5.073,5.073,0,0,1-1.338-3.745,5.352,5.352,0,0,1,1.445-3.945,4.815,4.815,0,0,1,3.555-1.455,4.37,4.37,0,0,1,3.384,1.3,5,5,0,0,1,1.2,3.525ZM80.4,15.984q0-2.148-1.738-2.148a1.66,1.66,0,0,0-1.284.615,2.792,2.792,0,0,0-.659,1.533ZM94.753,22H91.677V16.443q0-2.324-1.66-2.324a1.647,1.647,0,0,0-1.318.615,2.344,2.344,0,0,0-.518,1.563V22H85.095V12h3.086v1.582h.039a3.536,3.536,0,0,1,3.213-1.826q3.32,0,3.32,4.121ZM105.8,22h-3.086V7.2H105.8Zm10.92,0H113.8V20.564h-.039a3.259,3.259,0,0,1-2.979,1.68,3.116,3.116,0,0,1-2.29-.825,2.957,2.957,0,0,1-.835-2.2q0-2.91,3.447-3.359l2.715-.361q0-1.641-1.777-1.641a6.067,6.067,0,0,0-3.4,1.064V12.6a7.646,7.646,0,0,1,1.763-.586,9.266,9.266,0,0,1,2.036-.254q4.277,0,4.277,4.268Zm-2.9-4.062v-.674l-1.816.234q-1.5.2-1.5,1.357a1.122,1.122,0,0,0,.366.864,1.407,1.407,0,0,0,.991.337,1.827,1.827,0,0,0,1.416-.6A2.169,2.169,0,0,0,113.822,17.938Zm4.689,3.8v-2.5a6.57,6.57,0,0,0,1.519.684,5.035,5.035,0,0,0,1.431.225,3.068,3.068,0,0,0,1.294-.225.726.726,0,0,0,.474-.684.632.632,0,0,0-.215-.488,2,2,0,0,0-.552-.342,6.261,6.261,0,0,0-.737-.264q-.4-.117-.771-.264a7.392,7.392,0,0,1-1.05-.483,3.034,3.034,0,0,1-.762-.6,2.361,2.361,0,0,1-.469-.791,3.157,3.157,0,0,1-.161-1.064,2.74,2.74,0,0,1,.366-1.445,2.991,2.991,0,0,1,.977-.991,4.462,4.462,0,0,1,1.4-.566,7.281,7.281,0,0,1,1.636-.181,9.076,9.076,0,0,1,1.348.1,10.059,10.059,0,0,1,1.348.3v2.383a4.87,4.87,0,0,0-1.255-.513,5.294,5.294,0,0,0-1.313-.171,2.91,2.91,0,0,0-.571.054,1.882,1.882,0,0,0-.474.156.87.87,0,0,0-.322.264.607.607,0,0,0-.117.366.677.677,0,0,0,.176.469,1.527,1.527,0,0,0,.459.337,4.531,4.531,0,0,0,.63.254q.347.112.688.229a8.951,8.951,0,0,1,1.113.469,3.56,3.56,0,0,1,.854.6,2.339,2.339,0,0,1,.547.8,3.2,3.2,0,0,1-.2,2.612,3.088,3.088,0,0,1-1.025,1.025,4.65,4.65,0,0,1-1.475.576,8.175,8.175,0,0,1-1.733.181A8.936,8.936,0,0,1,118.511,21.736ZM17.133,47.838h-.039V53.6H14.008V39h3.086v1.5h.039a3.628,3.628,0,0,1,3.213-1.748,3.615,3.615,0,0,1,3,1.333,5.676,5.676,0,0,1,1.06,3.628,6.152,6.152,0,0,1-1.235,4.014,4.028,4.028,0,0,1-3.286,1.514A3.114,3.114,0,0,1,17.133,47.838Zm-.088-4.1v.8a2.546,2.546,0,0,0,.547,1.689,1.78,1.78,0,0,0,1.436.654,1.892,1.892,0,0,0,1.636-.815,3.937,3.937,0,0,0,.581-2.31q0-2.637-2.051-2.637a1.926,1.926,0,0,0-1.548.718A2.863,2.863,0,0,0,17.045,43.736Zm15.891-1.953a2.677,2.677,0,0,0-1.3-.3,1.871,1.871,0,0,0-1.572.737,3.217,3.217,0,0,0-.566,2.007V49H26.412V39H29.5v1.855h.039a2.67,2.67,0,0,1,2.637-2.031,1.987,1.987,0,0,1,.762.117Zm6.125,7.461a5.376,5.376,0,0,1-3.931-1.4,5.081,5.081,0,0,1-1.431-3.8,5.081,5.081,0,0,1,1.484-3.882,5.609,5.609,0,0,1,4.014-1.4,5.311,5.311,0,0,1,3.906,1.4,4.981,4.981,0,0,1,1.416,3.706,5.288,5.288,0,0,1-1.46,3.936A5.435,5.435,0,0,1,39.06,49.244Zm.078-8.125a2.058,2.058,0,0,0-1.7.752A3.316,3.316,0,0,0,36.834,44q0,2.881,2.324,2.881,2.217,0,2.217-2.959Q41.375,41.119,39.139,41.119Zm10.51,6.719h-.039V53.6H46.523V39h3.086v1.5h.039a3.927,3.927,0,0,1,6.216-.415,5.676,5.676,0,0,1,1.06,3.628,6.152,6.152,0,0,1-1.235,4.014A4.028,4.028,0,0,1,52.4,49.244,3.114,3.114,0,0,1,49.648,47.838Zm-.088-4.1v.8a2.546,2.546,0,0,0,.547,1.689,1.78,1.78,0,0,0,1.436.654,1.892,1.892,0,0,0,1.636-.815,3.937,3.937,0,0,0,.581-2.31q0-2.637-2.051-2.637a1.926,1.926,0,0,0-1.548.718A2.863,2.863,0,0,0,49.56,43.736Zm10.93-6.318a1.8,1.8,0,0,1-1.279-.464,1.5,1.5,0,0,1-.5-1.138,1.441,1.441,0,0,1,.5-1.133,2.089,2.089,0,0,1,2.563,0,1.448,1.448,0,0,1,.493,1.133,1.489,1.489,0,0,1-.493,1.152A1.833,1.833,0,0,1,60.49,37.418ZM62.014,49H58.928V39h3.086ZM73.6,44.879H67.074q.156,2.178,2.744,2.178a5.358,5.358,0,0,0,2.9-.781V48.5a7.619,7.619,0,0,1-3.6.742,4.654,4.654,0,0,1-5.1-5.088,5.352,5.352,0,0,1,1.445-3.945,4.815,4.815,0,0,1,3.555-1.455,4.37,4.37,0,0,1,3.384,1.3,5,5,0,0,1,1.2,3.525Zm-2.861-1.895q0-2.148-1.738-2.148a1.66,1.66,0,0,0-1.284.615,2.792,2.792,0,0,0-.659,1.533ZM85.221,49H82.135V47.623H82.1A3.46,3.46,0,0,1,79,49.244a3.791,3.791,0,0,1-3.018-1.323,5.478,5.478,0,0,1-1.143-3.7A5.962,5.962,0,0,1,76.1,40.25a4.109,4.109,0,0,1,3.3-1.494,2.808,2.808,0,0,1,2.7,1.387h.039V34.2h3.086Zm-3.027-4.863v-.752a2.366,2.366,0,0,0-.566-1.621,2,2,0,0,0-3.076.161,3.741,3.741,0,0,0-.576,2.212,3.237,3.237,0,0,0,.557,2.031,1.976,1.976,0,0,0,3.071-.039A3.134,3.134,0,0,0,82.193,44.137ZM96.141,49h-2.92V47.564h-.039a3.259,3.259,0,0,1-2.979,1.68,3.116,3.116,0,0,1-2.29-.825,2.957,2.957,0,0,1-.835-2.2q0-2.91,3.447-3.359L93.24,42.5q0-1.641-1.777-1.641a6.067,6.067,0,0,0-3.4,1.064V39.6a7.645,7.645,0,0,1,1.763-.586,9.266,9.266,0,0,1,2.036-.254q4.277,0,4.277,4.268Zm-2.9-4.062v-.674l-1.816.234q-1.5.2-1.5,1.357a1.122,1.122,0,0,0,.366.864,1.407,1.407,0,0,0,.991.337,1.827,1.827,0,0,0,1.416-.6A2.169,2.169,0,0,0,93.24,44.938ZM108.369,49h-3.086V47.623h-.039a3.46,3.46,0,0,1-3.1,1.621,3.791,3.791,0,0,1-3.018-1.323,5.478,5.478,0,0,1-1.143-3.7,5.962,5.962,0,0,1,1.26-3.975,4.109,4.109,0,0,1,3.3-1.494,2.808,2.808,0,0,1,2.7,1.387h.039V34.2h3.086Zm-3.027-4.863v-.752a2.366,2.366,0,0,0-.566-1.621,2,2,0,0,0-3.076.161,3.741,3.741,0,0,0-.576,2.212,3.237,3.237,0,0,0,.557,2.031,1.976,1.976,0,0,0,3.071-.039A3.134,3.134,0,0,0,105.342,44.137Zm14.611.742H113.43q.156,2.178,2.744,2.178a5.358,5.358,0,0,0,2.9-.781V48.5a7.619,7.619,0,0,1-3.6.742,4.654,4.654,0,0,1-5.1-5.088,5.352,5.352,0,0,1,1.445-3.945,4.815,4.815,0,0,1,3.555-1.455,4.37,4.37,0,0,1,3.384,1.3,5,5,0,0,1,1.2,3.525Zm-2.861-1.895q0-2.148-1.738-2.148a1.66,1.66,0,0,0-1.284.615,2.792,2.792,0,0,0-.659,1.533Zm4.045,5.752v-2.5a6.57,6.57,0,0,0,1.519.684,5.035,5.035,0,0,0,1.431.225,3.069,3.069,0,0,0,1.294-.225.726.726,0,0,0,.474-.684.632.632,0,0,0-.215-.488,2,2,0,0,0-.552-.342,6.261,6.261,0,0,0-.737-.264q-.4-.117-.771-.264a7.392,7.392,0,0,1-1.05-.483,3.034,3.034,0,0,1-.762-.6A2.361,2.361,0,0,1,121.3,43a3.157,3.157,0,0,1-.161-1.064,2.74,2.74,0,0,1,.366-1.445,2.991,2.991,0,0,1,.977-.991,4.462,4.462,0,0,1,1.4-.566,7.281,7.281,0,0,1,1.636-.181,9.076,9.076,0,0,1,1.348.1,10.059,10.059,0,0,1,1.348.3v2.383a4.87,4.87,0,0,0-1.255-.513,5.293,5.293,0,0,0-1.313-.171,2.91,2.91,0,0,0-.571.054,1.882,1.882,0,0,0-.474.156.87.87,0,0,0-.322.264.607.607,0,0,0-.117.366.677.677,0,0,0,.176.469,1.527,1.527,0,0,0,.459.337,4.531,4.531,0,0,0,.63.254q.347.112.688.229a8.952,8.952,0,0,1,1.113.469,3.56,3.56,0,0,1,.854.6,2.339,2.339,0,0,1,.547.8,3.2,3.2,0,0,1-.2,2.612,3.088,3.088,0,0,1-1.025,1.025,4.65,4.65,0,0,1-1.475.576,8.175,8.175,0,0,1-1.733.181A8.936,8.936,0,0,1,121.137,48.736Zm-85.4,26.1H35.7V80.6H32.609V66H35.7v1.5h.039a3.927,3.927,0,0,1,6.216-.415,5.676,5.676,0,0,1,1.06,3.628,6.152,6.152,0,0,1-1.235,4.014,4.028,4.028,0,0,1-3.286,1.514A3.114,3.114,0,0,1,35.734,74.838Zm-.088-4.1v.8a2.546,2.546,0,0,0,.547,1.689,1.78,1.78,0,0,0,1.436.654,1.892,1.892,0,0,0,1.636-.815,3.937,3.937,0,0,0,.581-2.31q0-2.637-2.051-2.637a1.926,1.926,0,0,0-1.548.718A2.863,2.863,0,0,0,35.646,70.736Zm15.891-1.953a2.677,2.677,0,0,0-1.3-.3,1.871,1.871,0,0,0-1.572.737,3.217,3.217,0,0,0-.566,2.007V76H45.014V66H48.1v1.855h.039a2.67,2.67,0,0,1,2.637-2.031,1.987,1.987,0,0,1,.762.117Zm3.078-4.365a1.8,1.8,0,0,1-1.279-.464,1.5,1.5,0,0,1-.5-1.138,1.441,1.441,0,0,1,.5-1.133,2.089,2.089,0,0,1,2.563,0,1.448,1.448,0,0,1,.493,1.133,1.489,1.489,0,0,1-.493,1.152A1.833,1.833,0,0,1,54.615,64.418ZM56.139,76H53.053V66h3.086ZM68.26,66,64.539,76H61.023L57.478,66h3.3l1.738,6.162a9,9,0,0,1,.342,1.777H62.9a10.086,10.086,0,0,1,.361-1.719L65.037,66ZM77.6,76h-2.92V74.564h-.039a3.259,3.259,0,0,1-2.979,1.68,3.116,3.116,0,0,1-2.29-.825,2.957,2.957,0,0,1-.835-2.2q0-2.91,3.447-3.359L74.7,69.5q0-1.641-1.777-1.641a6.067,6.067,0,0,0-3.4,1.064V66.6a7.646,7.646,0,0,1,1.763-.586,9.266,9.266,0,0,1,2.036-.254q4.277,0,4.277,4.268Zm-2.9-4.062v-.674l-1.816.234q-1.5.2-1.5,1.357a1.122,1.122,0,0,0,.366.864,1.407,1.407,0,0,0,.991.337,1.827,1.827,0,0,0,1.416-.6A2.169,2.169,0,0,0,74.7,71.938ZM89.826,76H86.74V74.623H86.7a3.46,3.46,0,0,1-3.1,1.621,3.791,3.791,0,0,1-3.018-1.323,5.478,5.478,0,0,1-1.143-3.7,5.962,5.962,0,0,1,1.26-3.975,4.109,4.109,0,0,1,3.3-1.494,2.808,2.808,0,0,1,2.7,1.387h.039V61.2h3.086ZM86.8,71.137v-.752a2.366,2.366,0,0,0-.566-1.621,2,2,0,0,0-3.076.161,3.741,3.741,0,0,0-.576,2.212,3.237,3.237,0,0,0,.557,2.031,1.976,1.976,0,0,0,3.071-.039A3.134,3.134,0,0,0,86.8,71.137ZM100.746,76h-2.92V74.564h-.039a3.259,3.259,0,0,1-2.979,1.68,3.116,3.116,0,0,1-2.29-.825,2.957,2.957,0,0,1-.835-2.2q0-2.91,3.447-3.359l2.715-.361q0-1.641-1.777-1.641a6.067,6.067,0,0,0-3.4,1.064V66.6a7.646,7.646,0,0,1,1.763-.586,9.266,9.266,0,0,1,2.036-.254q4.277,0,4.277,4.268Zm-2.9-4.062v-.674l-1.816.234q-1.5.2-1.5,1.357a1.122,1.122,0,0,0,.366.864,1.407,1.407,0,0,0,.991.337,1.827,1.827,0,0,0,1.416-.6A2.169,2.169,0,0,0,97.846,71.938Zm4.69,3.8v-2.5a6.57,6.57,0,0,0,1.519.684,5.035,5.035,0,0,0,1.431.225,3.068,3.068,0,0,0,1.294-.225.726.726,0,0,0,.474-.684.632.632,0,0,0-.215-.488,2,2,0,0,0-.552-.342,6.261,6.261,0,0,0-.737-.264q-.4-.117-.771-.264a7.392,7.392,0,0,1-1.05-.483,3.034,3.034,0,0,1-.762-.6A2.361,2.361,0,0,1,102.7,70a3.157,3.157,0,0,1-.161-1.064,2.74,2.74,0,0,1,.366-1.445,2.991,2.991,0,0,1,.977-.991,4.462,4.462,0,0,1,1.4-.566,7.281,7.281,0,0,1,1.636-.181,9.076,9.076,0,0,1,1.348.1,10.058,10.058,0,0,1,1.348.3v2.383a4.869,4.869,0,0,0-1.255-.513,5.294,5.294,0,0,0-1.313-.171,2.91,2.91,0,0,0-.571.054,1.881,1.881,0,0,0-.474.156.87.87,0,0,0-.322.264.607.607,0,0,0-.117.366.677.677,0,0,0,.176.469,1.527,1.527,0,0,0,.459.337,4.531,4.531,0,0,0,.63.254q.347.112.688.229a8.95,8.95,0,0,1,1.113.469,3.56,3.56,0,0,1,.854.6,2.339,2.339,0,0,1,.547.8,3.2,3.2,0,0,1-.2,2.612,3.088,3.088,0,0,1-1.025,1.025,4.65,4.65,0,0,1-1.475.576,8.175,8.175,0,0,1-1.733.181A8.936,8.936,0,0,1,102.535,75.736Z" transform="translate(905 4773)" fill="#0b0a0a"/>
    <g id="Grupo_1144472" data-name="Grupo 1144472" transform="translate(936.946 4680)">
      <path id="Trazado_979161" data-name="Trazado 979161" d="M64,72.953v35.161h49.906V72.953L88.953,48Z" transform="translate(-54.926 -41.195)" fill="#fbc250"/>
      <path id="Trazado_979162" data-name="Trazado 979162" d="M63.577,30.685V8H52.235V19.342L40.893,8,8,40.893l3.4,3.4,29.49-29.49L70.382,44.3l3.4-3.4Z" transform="translate(-6.866 -6.866)" fill="#901c09"/>
      <g id="Grupo_1144462" data-name="Grupo 1144462">
        <g id="Grupo_1144461" data-name="Grupo 1144461" clip-path="url(#clip-path-2)">
          <path id="Trazado_979163" data-name="Trazado 979163" d="M176,207.879h4.537v-9.074a2.268,2.268,0,0,1,2.268-2.268h4.537a2.268,2.268,0,0,1,2.268,2.268v9.074h4.537v-9.074A6.805,6.805,0,0,0,187.342,192h-4.537A6.805,6.805,0,0,0,176,198.805Z" transform="translate(-151.047 -164.779)" fill="#a6adb9"/>
          <path id="Trazado_979164" data-name="Trazado 979164" d="M160,298.268v15.879a2.268,2.268,0,0,0,2.268,2.268h18.148a2.268,2.268,0,0,0,2.268-2.268V298.268A2.268,2.268,0,0,0,180.416,296H162.268A2.268,2.268,0,0,0,160,298.268" transform="translate(-137.315 -254.034)" fill="#9bb249"/>
          <path id="Trazado_979165" data-name="Trazado 979165" d="M222.806,331.4a3.4,3.4,0,1,0-5.671,2.52v3.152a2.268,2.268,0,0,0,4.537,0v-3.152a3.381,3.381,0,0,0,1.134-2.52" transform="translate(-185.376 -281.497)" fill="#a6adb9"/>
          <path id="Trazado_979166" data-name="Trazado 979166" d="M57.846,23.349V1.135A1.134,1.134,0,0,0,56.712,0H45.369a1.134,1.134,0,0,0-1.134,1.134v8.6L34.829.333a1.134,1.134,0,0,0-1.6,0L.333,33.225a1.134,1.134,0,0,0,0,1.6l3.4,3.4a1.134,1.134,0,0,0,1.6,0l2.6-2.6V66.92a1.134,1.134,0,0,0,1.134,1.134H58.98a1.134,1.134,0,0,0,1.134-1.134V35.631l2.6,2.6a1.134,1.134,0,0,0,1.6,0l3.4-3.4a1.134,1.134,0,0,0,0-1.6Zm0,42.436H10.208V33.363L34.027,9.544,57.846,33.363Zm5.671-29.959L34.829,7.138a1.134,1.134,0,0,0-1.6,0L4.537,35.826l-1.8-1.8L34.027,2.738l10.54,10.54a1.134,1.134,0,0,0,1.936-.8V2.269h9.074v21.55a1.134,1.134,0,0,0,.332.8l9.406,9.406Z" transform="translate(0 0)"/>
          <path id="Trazado_979167" data-name="Trazado 979167" d="M154.268,191.94v7.014A3.4,3.4,0,0,0,152,202.148v15.879a3.406,3.406,0,0,0,3.4,3.4H173.55a3.406,3.406,0,0,0,3.4-3.4V202.148a3.4,3.4,0,0,0-2.268-3.194V191.94a7.949,7.949,0,0,0-7.94-7.94h-4.537a7.949,7.949,0,0,0-7.94,7.94m20.416,26.087a1.135,1.135,0,0,1-1.134,1.134H155.4a1.135,1.135,0,0,1-1.134-1.134V202.148a1.135,1.135,0,0,1,1.134-1.134H173.55a1.135,1.135,0,0,1,1.134,1.134Zm-6.805-19.282h-6.805V191.94a1.135,1.135,0,0,1,1.134-1.134h4.537a1.135,1.135,0,0,1,1.134,1.134Zm4.537-6.805v6.805h-2.268V191.94a3.406,3.406,0,0,0-3.4-3.4h-4.537a3.406,3.406,0,0,0-3.4,3.4v6.805h-2.268V191.94a5.678,5.678,0,0,1,5.671-5.671h4.537a5.678,5.678,0,0,1,5.671,5.671" transform="translate(-130.45 -157.913)"/>
          <path id="Trazado_979168" data-name="Trazado 979168" d="M211.737,320.066a4.576,4.576,0,0,0-3.663,3.666,4.519,4.519,0,0,0,1.064,3.785V330.2a3.4,3.4,0,0,0,6.805,0v-2.688a4.531,4.531,0,0,0-4.207-7.45m2.313,6.145a1.133,1.133,0,0,0-.375.842V330.2a1.134,1.134,0,0,1-2.268,0v-3.151a1.134,1.134,0,0,0-.375-.843,2.238,2.238,0,0,1-.722-2.087,2.3,2.3,0,0,1,1.816-1.822,2.454,2.454,0,0,1,.419-.037A2.238,2.238,0,0,1,214,322.8a2.251,2.251,0,0,1,.05,3.415" transform="translate(-178.514 -274.628)"/>
        </g>
      </g>
    </g>
  </g>
</svg>
