<svg xmlns="http://www.w3.org/2000/svg" xmlns:xlink="http://www.w3.org/1999/xlink" width="108" height="108" viewBox="0 0 108 108">
  <defs>
    <filter id="Trazado_904820" x="0" y="0" width="108" height="108" filterUnits="userSpaceOnUse">
      <feOffset dy="3" input="SourceAlpha"/>
      <feGaussianBlur stdDeviation="3" result="blur"/>
      <feFlood flood-opacity="0.161"/>
      <feComposite operator="in" in2="blur"/>
      <feComposite in="SourceGraphic"/>
    </filter>
    <clipPath id="clip-path">
      <rect id="Rectángulo_405323" data-name="Rectángulo 405323" width="58" height="58" transform="translate(-0.318 -0.318)" fill="none"/>
    </clipPath>
  </defs>
  <g id="Grupo_1144449" data-name="Grupo 1144449" transform="translate(-200 -1562)">
    <g id="Grupo_1143771" data-name="Grupo 1143771" transform="translate(-522 -3565)">
      <g id="Icono" transform="translate(731 5133)">
        <g transform="matrix(1, 0, 0, 1, -9, -6)" filter="url(#Trazado_904820)">
          <g id="Trazado_904820-2" data-name="Trazado 904820" transform="translate(9 6)" fill="#dbe7fc">
            <path d="M 45 88.5 C 39.12687683105469 88.5 33.43022537231445 87.35007476806641 28.06830024719238 85.08217620849609 C 22.88852500915527 82.89131164550781 18.23629951477051 79.75458526611328 14.2408504486084 75.75914764404297 C 10.24541282653809 71.76370239257812 7.108687400817871 67.11147308349609 4.917825222015381 61.93170166015625 C 2.649924993515015 56.56977462768555 1.5 50.87312316894531 1.5 45 C 1.5 39.12687683105469 2.649924993515015 33.43022537231445 4.917825222015381 28.06830024719238 C 7.108687400817871 22.88852500915527 10.24541282653809 18.23629951477051 14.2408504486084 14.2408504486084 C 18.23629951477051 10.24541282653809 22.88852500915527 7.108687400817871 28.06830024719238 4.917825222015381 C 33.43022537231445 2.649924993515015 39.12687683105469 1.5 45 1.5 C 50.87312316894531 1.5 56.56977462768555 2.649924993515015 61.93170166015625 4.917825222015381 C 67.11147308349609 7.108687400817871 71.76370239257812 10.24541282653809 75.75914764404297 14.2408504486084 C 79.75458526611328 18.23629951477051 82.89131164550781 22.88852500915527 85.08217620849609 28.06830024719238 C 87.35007476806641 33.43022537231445 88.5 39.12687683105469 88.5 45 C 88.5 50.87312316894531 87.35007476806641 56.56977462768555 85.08217620849609 61.93170166015625 C 82.89131164550781 67.11147308349609 79.75458526611328 71.76370239257812 75.75914764404297 75.75914764404297 C 71.76370239257812 79.75458526611328 67.11147308349609 82.89131164550781 61.93170166015625 85.08217620849609 C 56.56977462768555 87.35007476806641 50.87312316894531 88.5 45 88.5 Z" stroke="none"/>
            <path d="M 45 3 C 39.32871246337891 3 33.82865524291992 4.110054016113281 28.65262985229492 6.299339294433594 C 23.65165710449219 8.414573669433594 19.15968322753906 11.44334411621094 15.301513671875 15.301513671875 C 11.44334411621094 19.15968322753906 8.414573669433594 23.65165710449219 6.299339294433594 28.65262985229492 C 4.110054016113281 33.82865524291992 3 39.32871246337891 3 45 C 3 50.67128753662109 4.110054016113281 56.17134475708008 6.299339294433594 61.34737396240234 C 8.414573669433594 66.34834289550781 11.44334411621094 70.84031677246094 15.301513671875 74.698486328125 C 19.15968322753906 78.55665588378906 23.65165710449219 81.58542633056641 28.65262985229492 83.70066070556641 C 33.82865524291992 85.88994598388672 39.32871246337891 87 45 87 C 50.67128753662109 87 56.17134475708008 85.88994598388672 61.34737396240234 83.70066070556641 C 66.34834289550781 81.58542633056641 70.84031677246094 78.55665588378906 74.698486328125 74.698486328125 C 78.55665588378906 70.84031677246094 81.58542633056641 66.34834289550781 83.70066070556641 61.34737396240234 C 85.88994598388672 56.17134475708008 87 50.67128753662109 87 45 C 87 39.32871246337891 85.88994598388672 33.82865524291992 83.70066070556641 28.65262985229492 C 81.58542633056641 23.65165710449219 78.55665588378906 19.15968322753906 74.698486328125 15.301513671875 C 70.84031677246094 11.44334411621094 66.34834289550781 8.414573669433594 61.34737396240234 6.299339294433594 C 56.17134475708008 4.110054016113281 50.67128753662109 3 45 3 M 45 0 C 69.85281372070312 0 90 20.14718627929688 90 45 C 90 69.85281372070312 69.85281372070312 90 45 90 C 20.14718627929688 90 0 69.85281372070312 0 45 C 0 20.14718627929688 20.14718627929688 0 45 0 Z" stroke="none" fill="#0d5d91"/>
          </g>
        </g>
      </g>
    </g>
    <g id="Grupo_1144448" data-name="Grupo 1144448" transform="translate(229.318 1584.804)">
      <g id="Grupo_1144447" data-name="Grupo 1144447" transform="translate(0 -0.485)" clip-path="url(#clip-path)">
        <path id="Trazado_979031" data-name="Trazado 979031" d="M31.626,37.942l.37.276,3.885-5.2V3.226a.726.726,0,0,0-.726-.726H3.226a.726.726,0,0,0-.726.726V45.655l5.783,5.783h16.5a2.689,2.689,0,0,1,2.069-1.483v-.668a2.482,2.482,0,0,1,2.482-2.481h6.55V45.182l-6.2-4.63a1.628,1.628,0,1,1,1.948-2.609" transform="translate(-1.942 -1.414)" fill="#dae6f1"/>
        <path id="Trazado_979032" data-name="Trazado 979032" d="M131.922,168.14h0a1.633,1.633,0,0,1-2.279.331l-7.676-5.73a1.628,1.628,0,1,1,1.948-2.609l7.676,5.73a1.633,1.633,0,0,1,.331,2.279" transform="translate(-94.23 -123.603)" fill="#a57453"/>
        <path id="Trazado_979033" data-name="Trazado 979033" d="M174.728,110.8h0a1.633,1.633,0,0,1-2.279.331l-7.676-5.73a1.628,1.628,0,1,1,1.948-2.609l7.676,5.73a1.633,1.633,0,0,1,.331,2.279" transform="translate(-127.48 -79.061)" fill="#a57453"/>
        <rect id="Rectángulo_405321" data-name="Rectángulo 405321" width="12.72" height="8.657" transform="matrix(0.598, -0.801, 0.801, 0.598, 30.054, 36.804)" fill="#754e34"/>
        <path id="Trazado_979034" data-name="Trazado 979034" d="M178.368,159.619l14.173,10.58a1.628,1.628,0,0,0,1.948-2.609l-14.173-10.58Z" transform="translate(-138.546 -121.428)" fill="#a57453"/>
        <path id="Trazado_979035" data-name="Trazado 979035" d="M115.765,240.542h0a1.633,1.633,0,0,1-1.628,1.628H92.948a1.628,1.628,0,0,1,0-3.256h21.189a1.633,1.633,0,0,1,1.628,1.628" transform="translate(-70.932 -185.047)" fill="#c18e6b"/>
        <path id="Trazado_979036" data-name="Trazado 979036" d="M121.16,220.3V217.63a2.687,2.687,0,0,0-2.679-2.679H103.746a2.687,2.687,0,0,0-2.679,2.679V220.3Z" transform="translate(-78.503 -166.434)" fill="#a57453"/>
        <path id="Trazado_979037" data-name="Trazado 979037" d="M111.9,204.077h14.735a2.672,2.672,0,0,1,.335.023v-.667a2.482,2.482,0,0,0-2.481-2.482H114.048a2.481,2.481,0,0,0-2.481,2.482v.667a2.672,2.672,0,0,1,.335-.023" transform="translate(-86.659 -155.559)" fill="#754e34"/>
        <path id="Trazado_979038" data-name="Trazado 979038" d="M214.715,186.751l6.059,4.523a1.628,1.628,0,0,0,1.948-2.61l-6.059-4.523Z" transform="translate(-166.779 -142.503)" fill="#f5c84c"/>
        <rect id="Rectángulo_405322" data-name="Rectángulo 405322" width="7.162" height="8.657" transform="matrix(0.598, -0.801, 0.801, 0.598, 31.717, 34.577)" fill="#f5c84c"/>
        <path id="Trazado_979039" data-name="Trazado 979039" d="M39.586,25.856H55.1a.839.839,0,0,1,.839.839V29.16A.839.839,0,0,1,55.1,30H39.586a.839.839,0,0,1-.839-.839V26.695a.839.839,0,0,1,.839-.839" transform="translate(-30.096 -19.555)" fill="#fc657e"/>
        <path id="Trazado_979040" data-name="Trazado 979040" d="M2.5,195.8H7.557a.726.726,0,0,1,.726.726v5.057Z" transform="translate(-1.942 -151.555)" fill="#edf4fc"/>
        <path id="Trazado_979041" data-name="Trazado 979041" d="M219.09,101.4a1.74,1.74,0,0,1-1.384-1.362c0-.022-.067-.022-.067,0a1.74,1.74,0,0,1-1.384,1.362c-.022,0-.022.045,0,.067a1.74,1.74,0,0,1,1.384,1.362c0,.022.067.022.067,0a1.74,1.74,0,0,1,1.384-1.362c.022-.022.022-.067,0-.067" transform="translate(-167.962 -77.166)" fill="#fc657e"/>
        <path id="Trazado_979042" data-name="Trazado 979042" d="M187.523,28.257h.514v.513a.705.705,0,0,0,.714.714.715.715,0,0,0,.714-.692v-.536h.513a.705.705,0,0,0,.714-.714.715.715,0,0,0-.692-.714h-.536v-.513a.705.705,0,0,0-.714-.714.715.715,0,0,0-.714.692v.536h-.514a.705.705,0,0,0-.714.714.692.692,0,0,0,.714.714h0" transform="translate(-145.102 -19.357)" fill="#f5c84c"/>
        <path id="Trazado_979043" data-name="Trazado 979043" d="M12.772,232.5a.759.759,0,1,1-.759.759.759.759,0,0,1,.759-.759" transform="translate(-9.331 -180.065)" fill="#70d6f9"/>
        <path id="Trazado_979044" data-name="Trazado 979044" d="M175.772,0a.759.759,0,1,1-.759.759A.759.759,0,0,1,175.772,0" transform="translate(-135.94 0.528)" fill="#87d147"/>
        <path id="Trazado_979045" data-name="Trazado 979045" d="M38.7,239.876a2.477,2.477,0,0,0,1.987-1.942c0-.045.089-.045.089,0a2.477,2.477,0,0,0,1.987,1.942c.045,0,.045.067,0,.089a2.477,2.477,0,0,0-1.987,1.942c0,.045-.089.045-.089,0a2.477,2.477,0,0,0-1.987-1.942c-.045-.022-.045-.089,0-.089" transform="translate(-30.031 -184.259)" fill="#fc657e"/>
        <path id="Trazado_979046" data-name="Trazado 979046" d="M150.078,193.965a.558.558,0,0,1-.558-.558v-1.349a.558.558,0,1,1,1.116,0v1.349a.558.558,0,0,1-.558.558" transform="translate(-116.139 -148.218)"/>
        <path id="Trazado_979047" data-name="Trazado 979047" d="M22.743,50.054H6.341a.558.558,0,0,1-.395-.163L.163,44.107A.557.557,0,0,1,0,43.713V1.284A1.286,1.286,0,0,1,1.284,0H33.212A1.286,1.286,0,0,1,34.5,1.284V31.047a.558.558,0,0,1-1.116,0V1.284a.169.169,0,0,0-.168-.168H1.284a.168.168,0,0,0-.168.168v42.2l5.457,5.457H22.743a.558.558,0,1,1,0,1.116" transform="translate(0.001 0.528)"/>
        <path id="Trazado_979048" data-name="Trazado 979048" d="M48.049,60.327h-22a.558.558,0,1,1,0-1.116h22a.558.558,0,0,1,0,1.116" transform="translate(-19.802 -45.464)"/>
        <path id="Trazado_979049" data-name="Trazado 979049" d="M48.05,72.62h-22a.558.558,0,1,1,0-1.116h22a.558.558,0,0,1,0,1.116" transform="translate(-19.802 -55.012)"/>
        <path id="Trazado_979050" data-name="Trazado 979050" d="M48.05,97.208h-22a.558.558,0,1,1,0-1.116h22a.558.558,0,0,1,0,1.116" transform="translate(-19.802 -74.111)"/>
        <path id="Trazado_979051" data-name="Trazado 979051" d="M48.049,84.914h-22a.558.558,0,1,1,0-1.116h22a.558.558,0,0,1,0,1.116" transform="translate(-19.802 -64.562)"/>
        <path id="Trazado_979052" data-name="Trazado 979052" d="M48.049,146.383h-22a.558.558,0,0,1,0-1.116h22a.558.558,0,0,1,0,1.116" transform="translate(-19.802 -112.307)"/>
        <path id="Trazado_979053" data-name="Trazado 979053" d="M48.049,134.089h-22a.558.558,0,1,1,0-1.116h22a.558.558,0,1,1,0,1.116" transform="translate(-19.802 -102.758)"/>
        <path id="Trazado_979054" data-name="Trazado 979054" d="M48.05,109.5h-22a.558.558,0,1,1,0-1.116h22a.558.558,0,1,1,0,1.116" transform="translate(-19.802 -83.66)"/>
        <path id="Trazado_979055" data-name="Trazado 979055" d="M48.049,121.8h-22a.558.558,0,1,1,0-1.116h22a.558.558,0,0,1,0,1.116" transform="translate(-19.802 -93.209)"/>
        <path id="Trazado_979056" data-name="Trazado 979056" d="M93.179,178.405a.547.547,0,0,1-.078-.006l-2.211-.311a.558.558,0,1,1,.155-1.105l2.211.311a.558.558,0,0,1-.077,1.111" transform="translate(-70.225 -136.939)"/>
        <path id="Trazado_979057" data-name="Trazado 979057" d="M92.921,194.3a.558.558,0,0,1-.18-1.087l2.113-.72a.558.558,0,1,1,.36,1.056l-2.113.72a.56.56,0,0,1-.18.03" transform="translate(-71.742 -148.965)"/>
        <path id="Trazado_979058" data-name="Trazado 979058" d="M99.831,161.922a.556.556,0,0,1-.318-.1l-1.833-1.275a.558.558,0,1,1,.637-.916l1.833,1.274a.558.558,0,0,1-.319,1.016" transform="translate(-75.686 -123.387)"/>
        <path id="Trazado_979059" data-name="Trazado 979059" d="M28.719,166.3a1.47,1.47,0,0,1-.289-.029,1.772,1.772,0,0,1-1.321-.912,2.52,2.52,0,0,1,.07-2,.558.558,0,0,1,1.014.468,1.455,1.455,0,0,0-.087,1.032c.03.059.121.236.543.321.348.072.775-.565,1.119-1.076.072-.107.143-.213.213-.312a.886.886,0,0,1,1.57.246c.283.9.691.781.888.725a2.884,2.884,0,0,0,1.221-.954c.564-.62,1.337-1.469,2.565-.943a.558.558,0,0,1-.44,1.026c-.439-.188-.659-.037-1.3.668a3.814,3.814,0,0,1-1.74,1.276,1.685,1.685,0,0,1-2.1-1.044c-.45.666-1.047,1.51-1.931,1.51" transform="translate(-20.911 -125.846)"/>
        <path id="Trazado_979060" data-name="Trazado 979060" d="M128.666,167.408a2.166,2.166,0,0,1-1.3-.433l-7.676-5.73a2.186,2.186,0,0,1,2.616-3.5l7.676,5.73a2.184,2.184,0,0,1-.994,3.914,2.222,2.222,0,0,1-.321.023M121,158.425a1.085,1.085,0,0,0-.158.012,1.068,1.068,0,0,0-.486,1.914l7.676,5.73a1.07,1.07,0,0,0,1.28-1.715l-7.676-5.73a1.058,1.058,0,0,0-.636-.211" transform="translate(-92.285 -121.66)"/>
        <path id="Trazado_979061" data-name="Trazado 979061" d="M171.474,110.064a2.166,2.166,0,0,1-1.3-.433L162.5,103.9a2.186,2.186,0,0,1,2.616-3.5l7.676,5.73a2.184,2.184,0,0,1-.994,3.914,2.222,2.222,0,0,1-.321.023m-7.668-8.985a1.07,1.07,0,0,0-.641,1.927l7.676,5.73a1.07,1.07,0,0,0,1.28-1.715l-7.676-5.73a1.064,1.064,0,0,0-.639-.212" transform="translate(-125.537 -77.118)"/>
        <path id="Trazado_979062" data-name="Trazado 979062" d="M164.485,149.309a.558.558,0,0,1-.447-.892l7.295-9.773a.558.558,0,1,1,.895.668l-7.3,9.773a.557.557,0,0,1-.448.224" transform="translate(-127.329 -106.989)"/>
        <path id="Trazado_979063" data-name="Trazado 979063" d="M133.445,126.028a.558.558,0,0,1-.447-.892l7.3-9.785a.558.558,0,1,1,.895.668l-7.3,9.786a.557.557,0,0,1-.448.224" transform="translate(-103.219 -88.896)"/>
        <path id="Trazado_979064" data-name="Trazado 979064" d="M192.272,169.683a2.176,2.176,0,0,1-1.305-.433L177,158.82a.558.558,0,0,1,.668-.895l13.972,10.43a1.07,1.07,0,0,0,1.28-1.715l-13.963-10.423a.558.558,0,1,1,.668-.895l13.964,10.423a2.186,2.186,0,0,1-1.311,3.938" transform="translate(-137.306 -120.031)"/>
        <path id="Trazado_979065" data-name="Trazado 979065" d="M112.195,240.787H91.006a2.186,2.186,0,0,1,0-4.373h21.189a2.186,2.186,0,0,1,0,4.373M91.006,237.53a1.07,1.07,0,1,0,0,2.14h21.189a1.07,1.07,0,1,0,0-2.14Z" transform="translate(-68.99 -183.105)"/>
        <path id="Trazado_979066" data-name="Trazado 979066" d="M119.217,218.727a.558.558,0,0,1-.558-.558v-2.481a2.124,2.124,0,0,0-2.121-2.121H101.8a2.124,2.124,0,0,0-2.121,2.121V218.1a.558.558,0,1,1-1.116,0v-2.411a3.241,3.241,0,0,1,3.237-3.237h14.735a3.241,3.241,0,0,1,3.237,3.237v2.481a.558.558,0,0,1-.558.558" transform="translate(-76.561 -164.492)"/>
        <path id="Trazado_979067" data-name="Trazado 979067" d="M125.03,202.565a.558.558,0,0,1-.558-.558v-.515a1.925,1.925,0,0,0-1.923-1.923H112.107a1.925,1.925,0,0,0-1.923,1.923v.515a.558.558,0,0,1-1.116,0v-.515a3.043,3.043,0,0,1,3.04-3.04h10.442a3.043,3.043,0,0,1,3.04,3.04v.515a.558.558,0,0,1-.558.558" transform="translate(-84.717 -153.618)"/>
        <path id="Trazado_979068" data-name="Trazado 979068" d="M213.3,185.662a.558.558,0,0,1-.447-.892l1.734-2.323a.558.558,0,0,1,.895.668l-1.734,2.323a.557.557,0,0,1-.448.224" transform="translate(-165.244 -141.013)"/>
        <path id="Trazado_979069" data-name="Trazado 979069" d="M166.8,131.008a.557.557,0,0,1-.334-.111l-6.653-4.967a.558.558,0,0,1,.668-.895L167.13,130a.558.558,0,0,1-.334,1.005" transform="translate(-123.956 -96.507)"/>
        <path id="Trazado_979070" data-name="Trazado 979070" d="M147.479,156.621a.557.557,0,0,1-.334-.111l-6.558-4.9a.558.558,0,0,1,.668-.895l6.558,4.9a.558.558,0,0,1-.334,1.005" transform="translate(-109.026 -116.457)"/>
        <path id="Trazado_979071" data-name="Trazado 979071" d="M53.163,28.614H37.644a1.4,1.4,0,0,1-1.4-1.4V24.752a1.4,1.4,0,0,1,1.4-1.4H53.163a1.4,1.4,0,0,1,1.4,1.4v2.465a1.4,1.4,0,0,1-1.4,1.4M37.644,24.471a.281.281,0,0,0-.281.281v2.465a.281.281,0,0,0,.281.281H53.163a.281.281,0,0,0,.281-.281V24.752a.281.281,0,0,0-.281-.281Z" transform="translate(-28.155 -17.613)"/>
        <path id="Trazado_979072" data-name="Trazado 979072" d="M6.957,199.983a.558.558,0,0,1-.558-.558V194.58a.168.168,0,0,0-.168-.168H1.35a.558.558,0,1,1,0-1.116h4.88a1.286,1.286,0,0,1,1.284,1.284v4.845a.558.558,0,0,1-.558.558" transform="translate(-0.615 -149.613)"/>
      </g>
    </g>
  </g>
</svg>
