<svg xmlns="http://www.w3.org/2000/svg" xmlns:xlink="http://www.w3.org/1999/xlink" width="108" height="108" viewBox="0 0 108 108">
  <defs>
    <filter id="Elipse_11517" x="0" y="0" width="108" height="108" filterUnits="userSpaceOnUse">
      <feOffset dy="3" input="SourceAlpha"/>
      <feGaussianBlur stdDeviation="3" result="blur"/>
      <feFlood flood-opacity="0.161"/>
      <feComposite operator="in" in2="blur"/>
      <feComposite in="SourceGraphic"/>
    </filter>
    <clipPath id="clip-path">
      <rect id="Rectángulo_405318" data-name="Rectángulo 405318" width="66.224" height="58.848" fill="none"/>
    </clipPath>
  </defs>
  <g id="Grupo_1144440" data-name="Grupo 1144440" transform="translate(-198.373 -1808)">
    <g id="Grupo_1143708" data-name="Grupo 1143708" transform="translate(1.373 -391)">
      <g transform="matrix(1, 0, 0, 1, 197, 2199)" filter="url(#Elipse_11517)">
        <g id="Elipse_11517-2" data-name="Elipse 11517" transform="translate(9 6)" fill="#dbe7fc" stroke="#0d5d91" stroke-width="3">
          <circle cx="45" cy="45" r="45" stroke="none"/>
          <circle cx="45" cy="45" r="43.5" fill="none"/>
        </g>
      </g>
    </g>
    <g id="Grupo_1144439" data-name="Grupo 1144439" transform="translate(218.776 1827.637)">
      <g id="Grupo_1144438" data-name="Grupo 1144438" clip-path="url(#clip-path)">
        <path id="Trazado_978871" data-name="Trazado 978871" d="M48.622,38.454a7.811,7.811,0,1,1-7.811-7.811,7.811,7.811,0,0,1,7.811,7.811" transform="translate(-24.464 -22.716)" fill="#f5c84c"/>
        <path id="Trazado_978872" data-name="Trazado 978872" d="M47.9,94.606H33.97a.786.786,0,0,1-.786-.786V91.815a.786.786,0,0,1,.786-.786H47.9a.786.786,0,0,1,.786.786V93.82a.786.786,0,0,1-.786.786" transform="translate(-24.6 -67.481)" fill="#edb311"/>
        <path id="Trazado_978873" data-name="Trazado 978873" d="M86.657,108.432H72.728a.786.786,0,0,1-.786-.786v-2.005a.786.786,0,0,1,.786-.786H86.657a.786.786,0,0,1,.786.786v2.005a.786.786,0,0,1-.786.786" transform="translate(-53.332 -77.73)" fill="#fcdd86"/>
        <path id="Trazado_978874" data-name="Trazado 978874" d="M86.92,121.235a1.813,1.813,0,0,1,.524.078v-1.845a.786.786,0,0,0-.786-.786H72.729a.786.786,0,0,0-.786.786v2a.786.786,0,0,0,.786.786H85.292a1.807,1.807,0,0,1,1.628-1.024" transform="translate(-53.332 -87.98)" fill="#f5c84c"/>
        <path id="Trazado_978875" data-name="Trazado 978875" d="M87.443,135.3v-.275a1.806,1.806,0,0,1-2.151-2.517H72.728a.786.786,0,0,0-.786.786V135.3a.786.786,0,0,0,.786.786H86.657a.786.786,0,0,0,.786-.786" transform="translate(-53.332 -98.23)" fill="#fcdd86"/>
        <path id="Trazado_978876" data-name="Trazado 978876" d="M126.971,142.312a.647.647,0,1,1,0-1.293.139.139,0,0,0,.139-.139v-.2a.647.647,0,0,1,1.293,0v.2a1.434,1.434,0,0,1-1.433,1.433" transform="translate(-93.646 -103.81)"/>
        <path id="Trazado_978877" data-name="Trazado 978877" d="M43.209,107.646v-2.005a.786.786,0,0,1,.786-.786H33.969a.786.786,0,0,0-.786.786v2.005a.786.786,0,0,0,.786.786H44a.786.786,0,0,1-.786-.786" transform="translate(-24.599 -77.73)" fill="#f5c84c"/>
        <path id="Trazado_978878" data-name="Trazado 978878" d="M43.209,121.473v-2.005a.786.786,0,0,1,.786-.786H33.969a.786.786,0,0,0-.786.786v2.005a.786.786,0,0,0,.786.786H44a.786.786,0,0,1-.786-.786" transform="translate(-24.599 -87.98)" fill="#edb311"/>
        <path id="Trazado_978879" data-name="Trazado 978879" d="M43.209,135.3v-2.005a.786.786,0,0,1,.786-.786H33.969a.786.786,0,0,0-.786.786V135.3a.786.786,0,0,0,.786.786H44a.786.786,0,0,1-.786-.786" transform="translate(-24.599 -98.23)" fill="#f5c84c"/>
        <path id="Trazado_978880" data-name="Trazado 978880" d="M86.657,149.912H72.728a.786.786,0,0,1-.786-.786v-2.005a.786.786,0,0,1,.786-.786H86.657a.786.786,0,0,1,.786.786v2.005a.786.786,0,0,1-.786.786" transform="translate(-53.332 -108.48)" fill="#f5c84c"/>
        <path id="Trazado_978881" data-name="Trazado 978881" d="M82.221,163.643h4.8a.782.782,0,0,0,.418-.69v-2.005a.786.786,0,0,0-.786-.786H72.728a.786.786,0,0,0-.786.786v2.005a.786.786,0,0,0,.786.786h8.967a1.514,1.514,0,0,1,.526-.1" transform="translate(-53.332 -118.73)" fill="#fcdd86"/>
        <path id="Trazado_978882" data-name="Trazado 978882" d="M43.209,149.126v-2.005a.786.786,0,0,1,.786-.786H33.969a.786.786,0,0,0-.786.786v2.005a.786.786,0,0,0,.786.786H44a.786.786,0,0,1-.786-.786" transform="translate(-24.599 -108.48)" fill="#edb311"/>
        <path id="Trazado_978883" data-name="Trazado 978883" d="M43.209,162.953v-2.005a.786.786,0,0,1,.786-.786H33.969a.786.786,0,0,0-.786.786v2.005a.786.786,0,0,0,.786.786H44a.786.786,0,0,1-.786-.786" transform="translate(-24.599 -118.73)" fill="#f5c84c"/>
        <path id="Trazado_978884" data-name="Trazado 978884" d="M82.253,176.952h-.032a1.528,1.528,0,0,1-.526-2.963H72.728a.786.786,0,0,0-.786.786v2.005a.786.786,0,0,0,.786.786H82.5c-.09-.2-.175-.4-.248-.614" transform="translate(-53.332 -128.98)" fill="#f5c84c"/>
        <path id="Trazado_978885" data-name="Trazado 978885" d="M43.209,176.779v-2.005a.786.786,0,0,1,.786-.786H33.969a.786.786,0,0,0-.786.786v2.005a.786.786,0,0,0,.786.786H44a.786.786,0,0,1-.786-.786" transform="translate(-24.599 -128.979)" fill="#edb311"/>
        <path id="Trazado_978886" data-name="Trazado 978886" d="M114.354,18.965l-7.359.085a1.626,1.626,0,0,0,.019,3.252h.019l3.368-.039-8.066,8.066-9.346-9.347a1.649,1.649,0,0,0-2.3,0l-3.932,3.932a7.78,7.78,0,0,1,1.507,3.093l3.575-3.575,9.346,9.347a1.626,1.626,0,0,0,2.3,0l9.216-9.216-.039,3.368a1.626,1.626,0,0,0,1.608,1.645h.019a1.627,1.627,0,0,0,1.626-1.608L116,20.61a1.631,1.631,0,0,0-1.645-1.645" transform="translate(-64.313 -14.059)" fill="#70d6f9"/>
        <path id="Trazado_978887" data-name="Trazado 978887" d="M162.173,214.69a1.534,1.534,0,0,0-1.529-1.53h-7.886a1.529,1.529,0,1,0,0,3.059h7.886a1.534,1.534,0,0,0,1.529-1.529" transform="translate(-112.107 -158.018)" fill="#f5c84c"/>
        <path id="Trazado_978888" data-name="Trazado 978888" d="M165.8,199.447V196.8a2.144,2.144,0,0,0-2.137-2.137h-2.78a2.144,2.144,0,0,0-2.137,2.137v2.648Z" transform="translate(-117.681 -144.305)" fill="#818182"/>
        <path id="Trazado_978889" data-name="Trazado 978889" d="M201.778,173.618h-9.4a1.53,1.53,0,0,0,0,3.059h9.4a1.53,1.53,0,0,0,0-3.059" transform="translate(-141.482 -128.705)" fill="#f5c84c"/>
        <path id="Trazado_978890" data-name="Trazado 978890" d="M211.551,130.361a1.809,1.809,0,1,1-1.809-1.809,1.809,1.809,0,0,1,1.809,1.809" transform="translate(-154.144 -95.297)" fill="#f5c84c"/>
        <path id="Trazado_978891" data-name="Trazado 978891" d="M196.891,185.443A7.739,7.739,0,0,0,199,188.625a3.08,3.08,0,0,0,2.067.8h.975a3.08,3.08,0,0,0,2.067-.8,7.742,7.742,0,0,0,2.111-3.182Z" transform="translate(-145.958 -137.471)" fill="#818182"/>
        <path id="Trazado_978892" data-name="Trazado 978892" d="M116.69,173.618h-9.4a1.53,1.53,0,0,0,0,3.059h9.4a1.53,1.53,0,0,0,0-3.059" transform="translate(-78.405 -128.705)" fill="#f5c84c"/>
        <path id="Trazado_978893" data-name="Trazado 978893" d="M126.463,130.361a1.809,1.809,0,1,1-1.809-1.809,1.809,1.809,0,0,1,1.809,1.809" transform="translate(-91.067 -95.297)" fill="#f5c84c"/>
        <path id="Trazado_978894" data-name="Trazado 978894" d="M111.8,185.443a7.739,7.739,0,0,0,2.111,3.182,3.08,3.08,0,0,0,2.067.8h.975a3.08,3.08,0,0,0,2.067-.8,7.742,7.742,0,0,0,2.111-3.182Z" transform="translate(-82.88 -137.471)" fill="#818182"/>
        <path id="Trazado_978895" data-name="Trazado 978895" d="M166.6,127.98a1.663,1.663,0,0,0-1.4-.754h-2.564a1.663,1.663,0,0,0-1.4.754c-.088.108-.18.212-.273.313l1.272,16.4a2.112,2.112,0,0,1,.29-.022h2.78a2.112,2.112,0,0,1,.29.022l1.272-16.4c-.093-.1-.185-.2-.273-.313" transform="translate(-119.328 -94.314)" fill="#f5c84c"/>
        <path id="Trazado_978896" data-name="Trazado 978896" d="M164.96,116.426h2.564a1.488,1.488,0,0,1,.86.246L167.867,114a1.655,1.655,0,0,0-3.25,0l-.517,2.674a1.487,1.487,0,0,1,.86-.246" transform="translate(-121.649 -83.515)" fill="#f5c84c"/>
        <path id="Trazado_978897" data-name="Trazado 978897" d="M83.543,1.6a2.017,2.017,0,0,1-1.6-1.578c0-.026-.078-.026-.078,0a2.017,2.017,0,0,1-1.6,1.578c-.026,0-.026.052,0,.078a2.017,2.017,0,0,1,1.6,1.578c0,.026.078.026.078,0a2.017,2.017,0,0,1,1.6-1.578c.026-.026.026-.078,0-.078" transform="translate(-59.481)" fill="#70d6f9"/>
        <path id="Trazado_978898" data-name="Trazado 978898" d="M18.637,206.653h.595v.595a.817.817,0,0,0,.828.828.829.829,0,0,0,.828-.8v-.621h.595a.817.817,0,0,0,.828-.828.829.829,0,0,0-.8-.828h-.621V204.4a.817.817,0,0,0-.828-.828.829.829,0,0,0-.828.8V205h-.595a.817.817,0,0,0-.828.828.8.8,0,0,0,.828.828h0" transform="translate(-13.201 -150.913)" fill="#87d147"/>
        <path id="Trazado_978899" data-name="Trazado 978899" d="M250.08,101.475a.88.88,0,1,1-.88.88.879.879,0,0,1,.88-.88" transform="translate(-184.735 -75.225)" fill="#fc657e"/>
        <path id="Trazado_978900" data-name="Trazado 978900" d="M.88,172.975a.88.88,0,1,1-.88.88.879.879,0,0,1,.88-.88" transform="translate(0 -128.229)" fill="#f5c84c"/>
        <path id="Trazado_978901" data-name="Trazado 978901" d="M224.7,64.614a2.871,2.871,0,0,0,2.3-2.251c0-.052.1-.052.1,0a2.871,2.871,0,0,0,2.3,2.251c.052,0,.052.078,0,.1a2.871,2.871,0,0,0-2.3,2.251c0,.052-.1.052-.1,0a2.871,2.871,0,0,0-2.3-2.251c-.052-.026-.052-.1,0-.1" transform="translate(-166.545 -46.202)" fill="#f5c84c"/>
        <path id="Trazado_978902" data-name="Trazado 978902" d="M54.754,52.145H53.3a2.473,2.473,0,0,1-2.47-2.47.647.647,0,1,1,1.293,0A1.178,1.178,0,0,0,53.3,50.851h1.459a1.178,1.178,0,0,0,1.177-1.177v-.729a1.178,1.178,0,0,0-1.177-1.177H53.3a2.47,2.47,0,0,1,0-4.941h1.459a2.473,2.473,0,0,1,2.47,2.47.647.647,0,1,1-1.293,0,1.178,1.178,0,0,0-1.177-1.177H53.3a1.177,1.177,0,0,0,0,2.354h1.459a2.473,2.473,0,0,1,2.47,2.47v.729a2.473,2.473,0,0,1-2.47,2.47" transform="translate(-37.677 -31.748)"/>
        <path id="Trazado_978903" data-name="Trazado 978903" d="M61.341,50.784a.647.647,0,0,1-.647-.647V40.654a.647.647,0,0,1,1.293,0v9.483a.647.647,0,0,1-.647.647" transform="translate(-44.993 -29.658)"/>
        <path id="Trazado_978904" data-name="Trazado 978904" d="M38.958,45.058A8.457,8.457,0,1,1,47.416,36.6a8.467,8.467,0,0,1-8.457,8.457m0-15.621A7.164,7.164,0,1,0,46.122,36.6a7.172,7.172,0,0,0-7.164-7.164" transform="translate(-22.611 -20.863)"/>
        <path id="Trazado_978905" data-name="Trazado 978905" d="M46.045,93.4H32.117a1.434,1.434,0,0,1-1.433-1.433V89.962a1.434,1.434,0,0,1,1.433-1.433H46.045a1.434,1.434,0,0,1,1.433,1.433v2.005A1.434,1.434,0,0,1,46.045,93.4M32.117,89.822a.139.139,0,0,0-.139.139v2.005a.139.139,0,0,0,.139.139H46.045a.139.139,0,0,0,.139-.139V89.962a.139.139,0,0,0-.139-.139Z" transform="translate(-22.746 -65.628)"/>
        <path id="Trazado_978906" data-name="Trazado 978906" d="M84.8,107.225a.647.647,0,0,1,0-1.293.139.139,0,0,0,.139-.139v-2.005a.139.139,0,0,0-.139-.139H70.875a.139.139,0,0,0-.139.139v2.005a.139.139,0,0,0,.139.139.647.647,0,0,1,0,1.293,1.434,1.434,0,0,1-1.433-1.433v-2.005a1.434,1.434,0,0,1,1.433-1.433H84.8a1.434,1.434,0,0,1,1.433,1.433v2.005a1.434,1.434,0,0,1-1.433,1.433" transform="translate(-51.478 -75.877)"/>
        <path id="Trazado_978907" data-name="Trazado 978907" d="M83.258,121.052H70.876a1.434,1.434,0,0,1-1.433-1.433v-2.005a1.434,1.434,0,0,1,1.433-1.433H84.8a1.434,1.434,0,0,1,1.433,1.433v1.676a.647.647,0,1,1-1.293,0v-1.676a.14.14,0,0,0-.139-.139H70.876a.139.139,0,0,0-.139.139v2.005a.139.139,0,0,0,.139.139H83.258a.647.647,0,1,1,0,1.293" transform="translate(-51.479 -86.127)"/>
        <path id="Trazado_978908" data-name="Trazado 978908" d="M70.875,134.879a1.434,1.434,0,0,1-1.433-1.433v-2.005a1.434,1.434,0,0,1,1.433-1.433.647.647,0,1,1,0,1.293.14.14,0,0,0-.139.139v2.005a.139.139,0,0,0,.139.139.647.647,0,1,1,0,1.293" transform="translate(-51.478 -96.377)"/>
        <path id="Trazado_978909" data-name="Trazado 978909" d="M32.117,107.225a1.434,1.434,0,0,1-1.433-1.433v-2.005a1.434,1.434,0,0,1,1.433-1.433H42.143a.647.647,0,0,1,0,1.293H32.117a.139.139,0,0,0-.139.139v2.005a.139.139,0,0,0,.139.139.647.647,0,0,1,0,1.293" transform="translate(-22.746 -75.877)"/>
        <path id="Trazado_978910" data-name="Trazado 978910" d="M32.117,121.052a1.434,1.434,0,0,1-1.433-1.433v-2.005a1.434,1.434,0,0,1,1.433-1.433H42.143a.647.647,0,1,1,0,1.293H32.117a.139.139,0,0,0-.139.139v2.005a.139.139,0,0,0,.139.139.647.647,0,1,1,0,1.293" transform="translate(-22.746 -86.127)"/>
        <path id="Trazado_978911" data-name="Trazado 978911" d="M32.117,134.879a1.434,1.434,0,0,1-1.433-1.433v-2.005a1.434,1.434,0,0,1,1.433-1.433H42.143a.647.647,0,1,1,0,1.293H32.117a.139.139,0,0,0-.139.139v2.005a.139.139,0,0,0,.139.139.647.647,0,1,1,0,1.293" transform="translate(-22.746 -96.377)"/>
        <path id="Trazado_978912" data-name="Trazado 978912" d="M84.8,148.706H70.875a1.434,1.434,0,0,1-1.433-1.433v-2.005a1.434,1.434,0,0,1,1.433-1.433H84.8a1.434,1.434,0,0,1,1.433,1.433v2.005a1.435,1.435,0,0,1-1.433,1.433m-13.929-3.577a.139.139,0,0,0-.139.139v2.005a.14.14,0,0,0,.139.139H84.8a.14.14,0,0,0,.139-.139v-2.005a.139.139,0,0,0-.139-.139Z" transform="translate(-51.478 -106.627)"/>
        <path id="Trazado_978913" data-name="Trazado 978913" d="M79.772,162.532h-8.9a1.434,1.434,0,0,1-1.433-1.433v-2.005a1.434,1.434,0,0,1,1.433-1.432H84.8a1.434,1.434,0,0,1,1.433,1.432V161.1a1.429,1.429,0,0,1-.758,1.26.647.647,0,1,1-.611-1.14.138.138,0,0,0,.076-.12v-2.005a.139.139,0,0,0-.139-.139H70.875a.139.139,0,0,0-.139.139V161.1a.139.139,0,0,0,.139.139h8.9a.647.647,0,1,1,0,1.293" transform="translate(-51.478 -116.877)"/>
        <path id="Trazado_978914" data-name="Trazado 978914" d="M32.117,148.705a1.434,1.434,0,0,1-1.433-1.433v-2.005a1.434,1.434,0,0,1,1.433-1.433H42.143a.647.647,0,1,1,0,1.293H32.117a.139.139,0,0,0-.139.139v2.005a.139.139,0,0,0,.139.139.647.647,0,1,1,0,1.293" transform="translate(-22.746 -106.627)"/>
        <path id="Trazado_978915" data-name="Trazado 978915" d="M32.117,162.532a1.434,1.434,0,0,1-1.433-1.433v-2.005a1.434,1.434,0,0,1,1.433-1.432H42.143a.647.647,0,1,1,0,1.293H32.117a.139.139,0,0,0-.139.139V161.1a.139.139,0,0,0,.139.139.647.647,0,1,1,0,1.293" transform="translate(-22.746 -116.877)"/>
        <path id="Trazado_978916" data-name="Trazado 978916" d="M80.649,176.358H70.876a1.434,1.434,0,0,1-1.433-1.433v-2.005a1.434,1.434,0,0,1,1.433-1.433.647.647,0,1,1,0,1.293.139.139,0,0,0-.139.139v2.005a.139.139,0,0,0,.139.139h9.774a.647.647,0,0,1,0,1.293" transform="translate(-51.479 -127.126)"/>
        <path id="Trazado_978917" data-name="Trazado 978917" d="M42.142,176.358H32.116a1.434,1.434,0,0,1-1.433-1.433v-2.005a1.434,1.434,0,0,1,1.433-1.433H42.142a.647.647,0,1,1,0,1.293H32.116a.139.139,0,0,0-.139.139v2.005a.139.139,0,0,0,.139.139H42.142a.647.647,0,1,1,0,1.293" transform="translate(-22.746 -127.126)"/>
        <path id="Trazado_978918" data-name="Trazado 978918" d="M101.071,33.049a2.257,2.257,0,0,1-1.607-.666l-8.889-8.889-2.981,2.981a.647.647,0,1,1-.914-.914l3.438-3.438a.665.665,0,0,1,.914,0l9.347,9.347a1,1,0,0,0,1.385,0l9.217-9.216a.647.647,0,0,1,1.1.465l-.039,3.368a.98.98,0,0,0,.969.991.985.985,0,0,0,.991-.969l.085-7.359a.984.984,0,0,0-.986-.991l-7.364.085a.98.98,0,0,0-.968.991.983.983,0,0,0,.979.969l3.379-.039h.007a.647.647,0,0,1,.457,1.1l-8.066,8.066a.666.666,0,0,1-.915,0l-9.347-9.347a1,1,0,0,0-1.386,0l-3.726,3.726a.647.647,0,0,1-.914-.914l3.726-3.726a2.3,2.3,0,0,1,3.215,0l8.889,8.889,6.486-6.487-1.781.021h-.026a2.281,2.281,0,0,1-2.273-2.247,2.273,2.273,0,0,1,2.247-2.3l7.359-.085a2.284,2.284,0,0,1,1.626.66,2.256,2.256,0,0,1,.674,1.638l-.085,7.36a2.281,2.281,0,0,1-2.273,2.247h-.032a2.273,2.273,0,0,1-2.242-2.3l.02-1.781-8.094,8.094a2.256,2.256,0,0,1-1.607.666" transform="translate(-63.05 -12.205)"/>
        <path id="Trazado_978919" data-name="Trazado 978919" d="M151.933,129.183a7.168,7.168,0,0,1-5.583-2.648c-.355-.436-.58-.515-.9-.515h-2.564c-.316,0-.541.08-.9.515a7.168,7.168,0,0,1-5.583,2.648,7.241,7.241,0,0,1-1.578-.175.647.647,0,0,1,.282-1.262,5.945,5.945,0,0,0,1.3.144,5.88,5.88,0,0,0,4.58-2.172,2.288,2.288,0,0,1,1.9-.992h2.564a2.288,2.288,0,0,1,1.9.992,5.914,5.914,0,0,0,5.97,2.006.647.647,0,1,1,.3,1.257,7.237,7.237,0,0,1-1.694.2" transform="translate(-99.58 -92.461)"/>
        <path id="Trazado_978920" data-name="Trazado 978920" d="M195.575,148.994a.647.647,0,0,1-.594-.9l3.409-7.967a.647.647,0,1,1,1.189.509L196.17,148.6a.647.647,0,0,1-.595.392" transform="translate(-144.503 -103.586)"/>
        <path id="Trazado_978921" data-name="Trazado 978921" d="M220.8,148.994a.647.647,0,0,1-.595-.392l-3.409-7.967a.647.647,0,1,1,1.189-.509l3.409,7.967a.647.647,0,0,1-.594.9" transform="translate(-160.674 -103.586)"/>
        <path id="Trazado_978922" data-name="Trazado 978922" d="M110.487,148.994a.647.647,0,0,1-.594-.9l3.409-7.967a.647.647,0,1,1,1.189.509l-3.409,7.967a.646.646,0,0,1-.595.392" transform="translate(-81.426 -103.586)"/>
        <path id="Trazado_978923" data-name="Trazado 978923" d="M135.711,148.994a.647.647,0,0,1-.595-.392l-3.409-7.967a.647.647,0,1,1,1.189-.509l3.41,7.967a.647.647,0,0,1-.594.9" transform="translate(-97.597 -103.586)"/>
        <path id="Trazado_978924" data-name="Trazado 978924" d="M158.79,215.012H150.9a2.176,2.176,0,1,1,0-4.352h7.885a2.176,2.176,0,1,1,0,4.352m-7.885-3.059a.883.883,0,1,0,0,1.766h7.885a.883.883,0,1,0,0-1.766Z" transform="translate(-110.254 -156.165)"/>
        <path id="Trazado_978925" data-name="Trazado 978925" d="M163.948,197.906a.647.647,0,0,1-.647-.647v-2.314a1.492,1.492,0,0,0-1.491-1.491h-2.78a1.492,1.492,0,0,0-1.491,1.491v2.314a.647.647,0,0,1-1.293,0v-2.314a2.787,2.787,0,0,1,2.784-2.784h2.78a2.787,2.787,0,0,1,2.784,2.784v2.314a.647.647,0,0,1-.647.647" transform="translate(-115.828 -142.452)"/>
        <path id="Trazado_978926" data-name="Trazado 978926" d="M199.926,175.47h-9.4a2.176,2.176,0,0,1,0-4.352h9.4a2.176,2.176,0,1,1,0,4.352m-9.4-3.059a.883.883,0,0,0,0,1.766h9.4a.883.883,0,1,0,0-1.766Z" transform="translate(-139.629 -126.852)"/>
        <path id="Trazado_978927" data-name="Trazado 978927" d="M207.889,130.962a2.455,2.455,0,1,1,2.455-2.455,2.458,2.458,0,0,1-2.455,2.455m0-3.617a1.162,1.162,0,1,0,1.162,1.162,1.163,1.163,0,0,0-1.162-1.162" transform="translate(-152.291 -93.443)"/>
        <path id="Trazado_978928" data-name="Trazado 978928" d="M200.376,188.728H199.4a3.72,3.72,0,0,1-2.5-.963,8.429,8.429,0,0,1-2.217-3.253.647.647,0,1,1,1.21-.457,7.121,7.121,0,0,0,1.874,2.751,2.427,2.427,0,0,0,1.633.629h.976a2.428,2.428,0,0,0,1.633-.629,7.122,7.122,0,0,0,1.873-2.746.647.647,0,0,1,1.209.459,8.423,8.423,0,0,1-2.214,3.246,3.72,3.72,0,0,1-2.5.963" transform="translate(-144.29 -136.132)"/>
        <path id="Trazado_978929" data-name="Trazado 978929" d="M114.837,175.47h-9.4a2.176,2.176,0,0,1,0-4.352h9.4a2.176,2.176,0,0,1,0,4.352m-9.4-3.059a.883.883,0,0,0,0,1.766h9.4a.883.883,0,0,0,0-1.766Z" transform="translate(-76.552 -126.852)"/>
        <path id="Trazado_978930" data-name="Trazado 978930" d="M122.8,130.962a2.455,2.455,0,1,1,2.455-2.455,2.458,2.458,0,0,1-2.455,2.455m0-3.617a1.162,1.162,0,1,0,1.162,1.162,1.163,1.163,0,0,0-1.162-1.162" transform="translate(-89.214 -93.443)"/>
        <path id="Trazado_978931" data-name="Trazado 978931" d="M115.257,188.64h-.975a3.72,3.72,0,0,1-2.5-.963,8.421,8.421,0,0,1-2.229-3.286.647.647,0,1,1,1.212-.452,7.122,7.122,0,0,0,1.885,2.779,2.427,2.427,0,0,0,1.633.629h.975a2.427,2.427,0,0,0,1.633-.629,7.123,7.123,0,0,0,1.884-2.776.647.647,0,1,1,1.211.453,8.423,8.423,0,0,1-2.227,3.282,3.719,3.719,0,0,1-2.5.963" transform="translate(-81.181 -136.044)"/>
        <path id="Trazado_978932" data-name="Trazado 978932" d="M177.106,146.723l-.051,0a.647.647,0,0,1-.595-.695l1.239-15.972a.647.647,0,1,1,1.289.1l-1.239,15.972a.646.646,0,0,1-.644.6" transform="translate(-130.811 -95.968)"/>
        <path id="Trazado_978933" data-name="Trazado 978933" d="M160.405,146.771a.646.646,0,0,1-.644-.6L158.514,130.1a.647.647,0,1,1,1.29-.1l1.247,16.072a.647.647,0,0,1-.595.695l-.051,0" transform="translate(-117.507 -95.93)"/>
        <path id="Trazado_978934" data-name="Trazado 978934" d="M166.574,115.357a.647.647,0,0,1-.634-.524l-.5-2.565a1.008,1.008,0,0,0-1.98,0l-.5,2.558a.647.647,0,0,1-1.27-.246l.495-2.558a2.3,2.3,0,0,1,4.52,0l.5,2.565a.647.647,0,0,1-.512.758.655.655,0,0,1-.124.012" transform="translate(-119.861 -81.661)"/>
      </g>
    </g>
  </g>
</svg>
