<svg xmlns="http://www.w3.org/2000/svg" xmlns:xlink="http://www.w3.org/1999/xlink" width="123" height="123" viewBox="0 0 123 123">
  <defs>
    <filter id="Elipse_11517" x="0" y="0" width="123" height="123" filterUnits="userSpaceOnUse">
      <feOffset dy="3" input="SourceAlpha"/>
      <feGaussianBlur stdDeviation="3" result="blur"/>
      <feFlood flood-opacity="0.161"/>
      <feComposite operator="in" in2="blur"/>
      <feComposite in="SourceGraphic"/>
    </filter>
    <clipPath id="clip-path">
      <rect id="Rectángulo_405325" data-name="Rectángulo 405325" width="63.501" height="69.309" fill="none"/>
    </clipPath>
  </defs>
  <g id="Grupo_1144454" data-name="Grupo 1144454" transform="translate(-1221 -3251.4)">
    <g id="Grupo_1144413" data-name="Grupo 1144413" transform="translate(1230 3257.4)">
      <g transform="matrix(1, 0, 0, 1, -9, -6)" filter="url(#Elipse_11517)">
        <g id="Elipse_11517-2" data-name="Elipse 11517" transform="translate(9 6)" fill="#dbe7fc" stroke="#0d5d91" stroke-width="3">
          <circle cx="52.5" cy="52.5" r="52.5" stroke="none"/>
          <circle cx="52.5" cy="52.5" r="51" fill="none"/>
        </g>
      </g>
    </g>
    <g id="Grupo_1144453" data-name="Grupo 1144453" transform="translate(1250.22 3274.453)">
      <g id="Grupo_1144452" data-name="Grupo 1144452" clip-path="url(#clip-path)">
        <path id="Trazado_979109" data-name="Trazado 979109" d="M93.109,16.5H70.638a2.3,2.3,0,1,0,0,4.6H93.109a2.3,2.3,0,0,0,0-4.6" transform="translate(-49.836 -12.033)" fill="#818182"/>
        <path id="Trazado_979110" data-name="Trazado 979110" d="M75.707,24.5H69.331c0,.045.007.09.007.135a2.308,2.308,0,0,1-2.3,2.3H44.565a2.308,2.308,0,0,1-2.3-2.3c0-.046,0-.09.007-.135H35.894a3.32,3.32,0,0,0-3.31,3.31V83.189a3.32,3.32,0,0,0,3.31,3.31H75.707a3.32,3.32,0,0,0,3.31-3.31V27.81a3.32,3.32,0,0,0-3.31-3.31" transform="translate(-23.762 -17.867)" fill="#6cadef"/>
        <path id="Trazado_979111" data-name="Trazado 979111" d="M88.187,89.622V45.259a.759.759,0,0,0-.759-.759H53.343a.759.759,0,0,0-.759.759V94.91a.759.759,0,0,0,.759.759h28.8Z" transform="translate(-38.348 -32.452)" fill="#dae6f1"/>
        <path id="Trazado_979112" data-name="Trazado 979112" d="M101.641,65.5H84.714a.877.877,0,0,0-.877.877v2.577a.877.877,0,0,0,.877.877h16.926a.877.877,0,0,0,.877-.877V66.377a.877.877,0,0,0-.877-.877" transform="translate(-61.139 -47.767)" fill="#fc657e"/>
        <path id="Trazado_979113" data-name="Trazado 979113" d="M71.863,105.495H66.714a.878.878,0,0,1-.877-.878V99.469a.878.878,0,0,1,.877-.878h5.149a.878.878,0,0,1,.878.878v5.148a.878.878,0,0,1-.878.878" transform="translate(-48.013 -71.899)" fill="#70d6f9"/>
        <path id="Trazado_979114" data-name="Trazado 979114" d="M71.863,146.495H66.714a.878.878,0,0,1-.877-.878v-5.148a.878.878,0,0,1,.877-.878h5.149a.878.878,0,0,1,.878.878v5.148a.878.878,0,0,1-.878.878" transform="translate(-48.013 -101.799)" fill="#70d6f9"/>
        <path id="Trazado_979115" data-name="Trazado 979115" d="M71.863,187.495H66.714a.878.878,0,0,1-.877-.878v-5.148a.878.878,0,0,1,.877-.878h5.149a.878.878,0,0,1,.878.878v5.148a.878.878,0,0,1-.878.878" transform="translate(-48.013 -131.698)" fill="#70d6f9"/>
        <path id="Trazado_979116" data-name="Trazado 979116" d="M167.8,211.164h-5.288a.759.759,0,0,0-.759.759v5.288Z" transform="translate(-117.961 -153.994)" fill="#edf4fc"/>
        <path id="Trazado_979117" data-name="Trazado 979117" d="M221.034,197.7a2.11,2.11,0,0,1-1.679-1.652c0-.027-.081-.027-.081,0A2.111,2.111,0,0,1,217.6,197.7c-.027,0-.027.054,0,.081a2.111,2.111,0,0,1,1.679,1.651c0,.027.081.027.081,0a2.11,2.11,0,0,1,1.679-1.651c.027-.027.027-.081,0-.081" transform="translate(-158.669 -142.954)" fill="#87d147"/>
        <path id="Trazado_979118" data-name="Trazado 979118" d="M218.013,30.822h.623v.623a.855.855,0,0,0,.866.866.867.867,0,0,0,.866-.839v-.65h.623a.855.855,0,0,0,.866-.866.867.867,0,0,0-.839-.866h-.65v-.623a.855.855,0,0,0-.866-.866.867.867,0,0,0-.866.839v.65h-.623a.855.855,0,0,0-.866.866.839.839,0,0,0,.866.866h0" transform="translate(-158.356 -20.128)" fill="#70d6f9"/>
        <path id="Trazado_979119" data-name="Trazado 979119" d="M204.271,0a.921.921,0,1,1-.921.921A.92.92,0,0,1,204.271,0" transform="translate(-148.296)" fill="#f5c84c"/>
        <path id="Trazado_979120" data-name="Trazado 979120" d="M12.271,130a.921.921,0,1,1-.921.921.92.92,0,0,1,.921-.921" transform="translate(-8.277 -94.804)" fill="#fc657e"/>
        <path id="Trazado_979121" data-name="Trazado 979121" d="M.041,161.746a3,3,0,0,0,2.41-2.355c0-.054.108-.054.108,0a3,3,0,0,0,2.41,2.355c.054,0,.054.081,0,.108a3,3,0,0,0-2.41,2.355c0,.054-.108.054-.108,0a3,3,0,0,0-2.41-2.355c-.054-.027-.054-.108,0-.108" transform="translate(0 -116.208)" fill="#f5c84c"/>
        <path id="Trazado_979122" data-name="Trazado 979122" d="M91.286,19.956H68.815a2.978,2.978,0,1,1,0-5.956H91.286a2.978,2.978,0,1,1,0,5.956m-22.471-4.6a1.624,1.624,0,0,0,0,3.249H91.286a1.624,1.624,0,0,0,0-3.249Z" transform="translate(-48.013 -10.21)"/>
        <path id="Trazado_979123" data-name="Trazado 979123" d="M73.884,85.352H34.071a3.991,3.991,0,0,1-3.987-3.987V25.987A3.991,3.991,0,0,1,34.071,22h6.167a.677.677,0,0,1,0,1.354H34.071a2.636,2.636,0,0,0-2.633,2.633V81.366A2.636,2.636,0,0,0,34.071,84H73.884a2.636,2.636,0,0,0,2.633-2.633V25.987a2.636,2.636,0,0,0-2.633-2.633H67.819a.677.677,0,1,1,0-1.354h6.065a3.991,3.991,0,0,1,3.987,3.987V81.366a3.991,3.991,0,0,1-3.987,3.987" transform="translate(-21.939 -16.044)"/>
        <path id="Trazado_979124" data-name="Trazado 979124" d="M111.4,4.985a.677.677,0,0,1-.661-.827,2.272,2.272,0,0,0,.057-.5,2.3,2.3,0,1,0-4.6,0,2.245,2.245,0,0,0,.051.474.677.677,0,0,1-1.324.285,3.655,3.655,0,1,1,7.138.044.677.677,0,0,1-.66.527" transform="translate(-76.454)"/>
        <path id="Trazado_979125" data-name="Trazado 979125" d="M99.938,39.437H87.875A3.042,3.042,0,0,1,84.837,36.4V33.616a.677.677,0,0,1,1.354,0V36.4a1.686,1.686,0,0,0,1.685,1.685H99.938a1.686,1.686,0,0,0,1.685-1.685V33.594a.677.677,0,1,1,1.354,0V36.4a3.042,3.042,0,0,1-3.038,3.038" transform="translate(-61.869 -24.005)"/>
        <path id="Trazado_979126" data-name="Trazado 979126" d="M73.243,108.837a.675.675,0,0,1-.479-.2l-.995-.995a.677.677,0,0,1,.957-.957l.516.516,1.125-1.124a.677.677,0,0,1,.957.957l-1.6,1.6a.675.675,0,0,1-.479.2" transform="translate(-52.194 -77.215)"/>
        <path id="Trazado_979127" data-name="Trazado 979127" d="M119.844,99.023H102.423a.677.677,0,1,1,0-1.354h17.422a.677.677,0,0,1,0,1.354" transform="translate(-74.2 -71.226)"/>
        <path id="Trazado_979128" data-name="Trazado 979128" d="M119.844,110.195H102.423a.677.677,0,1,1,0-1.354h17.422a.677.677,0,0,1,0,1.354" transform="translate(-74.2 -79.374)"/>
        <path id="Trazado_979129" data-name="Trazado 979129" d="M111.133,121.368h-8.711a.677.677,0,1,1,0-1.354h8.711a.677.677,0,0,1,0,1.354" transform="translate(-74.199 -87.522)"/>
        <path id="Trazado_979130" data-name="Trazado 979130" d="M73.243,149.837a.675.675,0,0,1-.479-.2l-.995-.995a.677.677,0,0,1,.957-.957l.516.516,1.125-1.124a.677.677,0,1,1,.957.957l-1.6,1.6a.675.675,0,0,1-.479.2" transform="translate(-52.194 -107.114)"/>
        <path id="Trazado_979131" data-name="Trazado 979131" d="M119.844,140.023H102.423a.677.677,0,1,1,0-1.354h17.422a.677.677,0,1,1,0,1.354" transform="translate(-74.2 -101.126)"/>
        <path id="Trazado_979132" data-name="Trazado 979132" d="M119.844,151.195H102.423a.677.677,0,1,1,0-1.354h17.422a.677.677,0,0,1,0,1.354" transform="translate(-74.2 -109.274)"/>
        <path id="Trazado_979133" data-name="Trazado 979133" d="M111.133,162.368h-8.711a.677.677,0,1,1,0-1.354h8.711a.677.677,0,0,1,0,1.354" transform="translate(-74.199 -117.422)"/>
        <path id="Trazado_979134" data-name="Trazado 979134" d="M73.243,190.837a.675.675,0,0,1-.479-.2l-.995-.995a.677.677,0,1,1,.957-.957l.516.516,1.125-1.124a.677.677,0,1,1,.957.957l-1.6,1.6a.675.675,0,0,1-.479.2" transform="translate(-52.194 -137.014)"/>
        <path id="Trazado_979135" data-name="Trazado 979135" d="M119.844,181.023H102.423a.677.677,0,1,1,0-1.354h17.422a.677.677,0,0,1,0,1.354" transform="translate(-74.2 -131.026)"/>
        <path id="Trazado_979136" data-name="Trazado 979136" d="M119.844,192.195H102.423a.677.677,0,1,1,0-1.354h17.422a.677.677,0,0,1,0,1.354" transform="translate(-74.2 -139.173)"/>
        <path id="Trazado_979137" data-name="Trazado 979137" d="M111.133,203.368h-8.711a.677.677,0,1,1,0-1.354h8.711a.677.677,0,1,1,0,1.354" transform="translate(-74.199 -147.321)"/>
        <path id="Trazado_979138" data-name="Trazado 979138" d="M80.317,94.523H51.52a1.438,1.438,0,0,1-1.436-1.436V43.436A1.438,1.438,0,0,1,51.52,42H85.6a1.438,1.438,0,0,1,1.436,1.436V87.8a.677.677,0,0,1-.2.479L80.8,94.325a.677.677,0,0,1-.479.2M51.52,43.354a.083.083,0,0,0-.083.083v49.65a.083.083,0,0,0,.083.083H80.037l5.651-5.651V43.436a.083.083,0,0,0-.083-.083ZM86.364,87.8h0Z" transform="translate(-36.524 -30.629)"/>
        <path id="Trazado_979139" data-name="Trazado 979139" d="M99.817,68.685H82.891a1.556,1.556,0,0,1-1.554-1.554V64.554A1.556,1.556,0,0,1,82.891,63H99.817a1.556,1.556,0,0,1,1.554,1.554v2.577a1.556,1.556,0,0,1-1.554,1.554M82.891,64.354a.2.2,0,0,0-.2.2v2.577a.2.2,0,0,0,.2.2H99.817a.2.2,0,0,0,.2-.2V64.554a.2.2,0,0,0-.2-.2Z" transform="translate(-59.316 -45.944)"/>
        <path id="Trazado_979140" data-name="Trazado 979140" d="M70.04,104.348H64.892a1.556,1.556,0,0,1-1.555-1.555V97.646a1.556,1.556,0,0,1,1.555-1.555H70.04a1.556,1.556,0,0,1,1.554,1.555v5.148a1.556,1.556,0,0,1-1.554,1.555m-5.149-6.9a.2.2,0,0,0-.2.2v5.148a.2.2,0,0,0,.2.2H70.04a.2.2,0,0,0,.2-.2V97.646a.2.2,0,0,0-.2-.2Z" transform="translate(-46.189 -70.076)"/>
        <path id="Trazado_979141" data-name="Trazado 979141" d="M70.04,145.348H64.892a1.556,1.556,0,0,1-1.555-1.555v-5.148a1.556,1.556,0,0,1,1.555-1.555H70.04a1.556,1.556,0,0,1,1.554,1.555v5.148a1.556,1.556,0,0,1-1.554,1.555m-5.149-6.9a.2.2,0,0,0-.2.2v5.148a.2.2,0,0,0,.2.2H70.04a.2.2,0,0,0,.2-.2v-5.148a.2.2,0,0,0-.2-.2Z" transform="translate(-46.189 -99.975)"/>
        <path id="Trazado_979142" data-name="Trazado 979142" d="M70.04,186.348H64.892a1.556,1.556,0,0,1-1.555-1.555v-5.148a1.556,1.556,0,0,1,1.555-1.555H70.04a1.556,1.556,0,0,1,1.554,1.555v5.148a1.556,1.556,0,0,1-1.554,1.555m-5.149-6.9a.2.2,0,0,0-.2.2v5.148a.2.2,0,0,0,.2.2H70.04a.2.2,0,0,0,.2-.2v-5.148a.2.2,0,0,0-.2-.2Z" transform="translate(-46.189 -129.875)"/>
        <path id="Trazado_979143" data-name="Trazado 979143" d="M159.931,215.743a.677.677,0,0,1-.677-.677V210.1a1.438,1.438,0,0,1,1.436-1.436h5.067a.677.677,0,0,1,0,1.354H160.69a.083.083,0,0,0-.083.083v4.966a.677.677,0,0,1-.677.677" transform="translate(-116.138 -152.171)"/>
      </g>
    </g>
  </g>
</svg>
