<svg xmlns="http://www.w3.org/2000/svg" xmlns:xlink="http://www.w3.org/1999/xlink" width="108" height="108" viewBox="0 0 108 108">
  <defs>
    <filter id="Elipse_11517" x="0" y="0" width="108" height="108" filterUnits="userSpaceOnUse">
      <feOffset dy="3" input="SourceAlpha"/>
      <feGaussianBlur stdDeviation="3" result="blur"/>
      <feFlood flood-opacity="0.161"/>
      <feComposite operator="in" in2="blur"/>
      <feComposite in="SourceGraphic"/>
    </filter>
    <clipPath id="clip-path">
      <rect id="Rectángulo_405319" data-name="Rectángulo 405319" width="59" height="59" transform="translate(0 0)" fill="none"/>
    </clipPath>
  </defs>
  <g id="Grupo_1144443" data-name="Grupo 1144443" transform="translate(-196.687 -2808.75)">
    <g id="Grupo_1144404" data-name="Grupo 1144404" transform="translate(-0.313 609.75)">
      <g transform="matrix(1, 0, 0, 1, 197, 2199)" filter="url(#Elipse_11517)">
        <g id="Elipse_11517-2" data-name="Elipse 11517" transform="translate(9 6)" fill="#dbe7fc" stroke="#0d5d91" stroke-width="3">
          <circle cx="45" cy="45" r="45" stroke="none"/>
          <circle cx="45" cy="45" r="43.5" fill="none"/>
        </g>
      </g>
    </g>
    <g id="Grupo_1144442" data-name="Grupo 1144442" transform="translate(221 2829.623)">
      <g id="Grupo_1144441" data-name="Grupo 1144441" transform="translate(0 0.378)" clip-path="url(#clip-path)">
        <path id="Trazado_978935" data-name="Trazado 978935" d="M74.543,55.789l-3.3-1.276,4.71-12.2a.768.768,0,0,1-.142-.784L78.1,35.6V18.125l-5.961-5.961H36.354a1.349,1.349,0,0,0-1.349,1.349V66.731a1.349,1.349,0,0,0,1.349,1.349h40.4A1.349,1.349,0,0,0,78.1,66.731V46.584Z" transform="translate(-26.895 -9.66)" fill="#dae6f1"/>
        <path id="Trazado_978936" data-name="Trazado 978936" d="M214.014,100.553l-2.641-1.02a.771.771,0,0,1-.441-1l4.7-12.179,4.079,1.576-4.7,12.179a.771.771,0,0,1-1,.442" transform="translate(-162.02 -66.662)" fill="#5290db"/>
        <path id="Trazado_978937" data-name="Trazado 978937" d="M194.693,155.779l4.71-12.2a.761.761,0,0,1-.365-.044l-2.64-1.02a.763.763,0,0,1-.3-.213l-4.71,12.2Z" transform="translate(-147.045 -109.649)" fill="#6cadef"/>
        <path id="Trazado_978938" data-name="Trazado 978938" d="M235.125,70.488A2.186,2.186,0,0,0,232.3,71.74l-.893,2.312,4.079,1.575.893-2.311a2.186,2.186,0,0,0-1.252-2.827" transform="translate(-177.79 -54.357)" fill="#6cadef"/>
        <path id="Trazado_978939" data-name="Trazado 978939" d="M190.141,194.944l-.372,3.82a.77.77,0,0,0,1.384.535l2.292-3.079Z" transform="translate(-145.797 -150.09)" fill="#818182"/>
        <path id="Trazado_978940" data-name="Trazado 978940" d="M195.266,12.163v4.613a1.349,1.349,0,0,0,1.349,1.349h4.613Z" transform="translate(-150.024 -9.659)" fill="#edf4fc"/>
        <path id="Trazado_978941" data-name="Trazado 978941" d="M101.306,120.1v-1.7a1.763,1.763,0,0,0-1.763-1.763H90.115a1.763,1.763,0,0,0-1.763,1.763v1.7a.908.908,0,0,0,.908.908H100.4a.908.908,0,0,0,.908-.908" transform="translate(-67.881 -89.931)" fill="#a57453"/>
        <path id="Trazado_978942" data-name="Trazado 978942" d="M135.392,47.188h0a1.508,1.508,0,0,1-2.1.329L127.7,43.444a1.5,1.5,0,1,1,1.771-2.43l5.588,4.073a1.508,1.508,0,0,1,.329,2.1" transform="translate(-97.642 -31.605)" fill="#a57453"/>
        <path id="Trazado_978943" data-name="Trazado 978943" d="M136.968,82.041l9.7,7.068a1.5,1.5,0,1,0,1.771-2.43l-9.7-7.068Z" transform="translate(-105.233 -61.479)" fill="#754e34"/>
        <path id="Trazado_978944" data-name="Trazado 978944" d="M160.36,99.088l4.279,3.119a1.5,1.5,0,0,0,1.771-2.43l-4.279-3.119Z" transform="translate(-123.205 -74.577)" fill="#f5c84c"/>
        <path id="Trazado_978945" data-name="Trazado 978945" d="M75.222,69.644h0a4.472,4.472,0,1,1,4.472-4.472,4.472,4.472,0,0,1-4.472,4.472" transform="translate(-54.358 -46.951)" fill="#b2e26d"/>
        <path id="Trazado_978946" data-name="Trazado 978946" d="M113.767,53.535l-5.18,7.107c-.025.114-.053.228-.087.339l4.8,3.495,5.371-7.37Z" transform="translate(-83.361 -41.445)" fill="#f5c84c"/>
        <path id="Trazado_978947" data-name="Trazado 978947" d="M107.672,89.421l-5.14-3.746a4.478,4.478,0,0,1-1.8,2.409l5.169,3.767a1.5,1.5,0,0,0,1.771-2.43" transform="translate(-77.394 -66.138)" fill="#a57453"/>
        <path id="Trazado_978948" data-name="Trazado 978948" d="M241.2,204.456a1.806,1.806,0,0,1-1.437-1.413c0-.023-.07-.023-.07,0a1.806,1.806,0,0,1-1.437,1.413c-.023,0-.023.046,0,.07a1.806,1.806,0,0,1,1.437,1.413c0,.023.07.023.07,0a1.806,1.806,0,0,1,1.437-1.413c.023-.023.023-.07,0-.07" transform="translate(-183.04 -156.299)" fill="#fc657e"/>
        <path id="Trazado_978949" data-name="Trazado 978949" d="M239.338,29.357h.533v.533a.732.732,0,0,0,.741.741.742.742,0,0,0,.741-.718v-.556h.533a.732.732,0,0,0,.741-.741.742.742,0,0,0-.718-.741h-.556v-.533a.732.732,0,0,0-.741-.741.742.742,0,0,0-.741.718v.556h-.533a.732.732,0,0,0-.741.741.718.718,0,0,0,.741.741h0" transform="translate(-183.314 -20.751)" fill="#70d6f9"/>
        <path id="Trazado_978950" data-name="Trazado 978950" d="M12.8,149.5a.788.788,0,1,1-.788.788.788.788,0,0,1,.788-.788" transform="translate(-9.23 -115.176)" fill="#87d147"/>
        <path id="Trazado_978951" data-name="Trazado 978951" d="M220.8,0a.788.788,0,1,1-.788.788A.788.788,0,0,1,220.8,0" transform="translate(-169.037 -0.314)" fill="#f5c84c"/>
        <path id="Trazado_978952" data-name="Trazado 978952" d="M.035,108.4A2.571,2.571,0,0,0,2.1,106.385c0-.046.093-.046.093,0A2.571,2.571,0,0,0,4.252,108.4c.046,0,.046.07,0,.093a2.571,2.571,0,0,0-2.062,2.016c0,.046-.093.046-.093,0a2.571,2.571,0,0,0-2.062-2.016c-.046-.023-.046-.093,0-.093" transform="translate(0 -82.023)" fill="#f5c84c"/>
        <path id="Trazado_978953" data-name="Trazado 978953" d="M74.828,66.738h-40.4a1.93,1.93,0,0,1-1.928-1.928V11.591a1.93,1.93,0,0,1,1.928-1.928H70.216a.579.579,0,0,1,.409.17l5.962,5.961a.579.579,0,0,1,.17.41V33.631a.579.579,0,1,1-1.158,0V16.444l-5.622-5.622H34.433a.77.77,0,0,0-.769.769V64.81a.77.77,0,0,0,.769.769h40.4a.77.77,0,0,0,.769-.769V44.723a.579.579,0,0,1,1.158,0V64.81a1.93,1.93,0,0,1-1.928,1.928" transform="translate(-24.974 -7.738)"/>
        <path id="Trazado_978954" data-name="Trazado 978954" d="M168.51,202.054h-2.527a.579.579,0,1,1,0-1.158h2.527a.579.579,0,0,1,0,1.158" transform="translate(-127.081 -154.663)"/>
        <path id="Trazado_978955" data-name="Trazado 978955" d="M171.73,213.957h-5.747a.579.579,0,1,1,0-1.158h5.747a.579.579,0,0,1,0,1.158" transform="translate(-127.081 -163.809)"/>
        <path id="Trazado_978956" data-name="Trazado 978956" d="M63.9,202.054H61.371a.579.579,0,0,1,0-1.158H63.9a.579.579,0,0,1,0,1.158" transform="translate(-46.707 -154.663)"/>
        <path id="Trazado_978957" data-name="Trazado 978957" d="M67.118,213.957H61.371a.579.579,0,0,1,0-1.158h5.747a.579.579,0,1,1,0,1.158" transform="translate(-46.707 -163.809)"/>
        <path id="Trazado_978958" data-name="Trazado 978958" d="M91.355,152.171H61.37a.579.579,0,0,1,0-1.158H91.355a.579.579,0,0,1,0,1.158" transform="translate(-46.706 -116.338)"/>
        <path id="Trazado_978959" data-name="Trazado 978959" d="M91.124,164.073H61.37a.579.579,0,1,1,0-1.158H91.124a.579.579,0,1,1,0,1.158" transform="translate(-46.706 -125.482)"/>
        <path id="Trazado_978960" data-name="Trazado 978960" d="M90.2,175.975H61.37a.579.579,0,1,1,0-1.158H90.2a.579.579,0,1,1,0,1.158" transform="translate(-46.706 -134.627)"/>
        <path id="Trazado_978961" data-name="Trazado 978961" d="M224.307,92.325a.58.58,0,0,1-.54-.788l3.76-9.736a.579.579,0,0,1,1.081.417l-3.76,9.736a.579.579,0,0,1-.541.371" transform="translate(-171.891 -62.877)"/>
        <path id="Trazado_978962" data-name="Trazado 978962" d="M82.927,77.149a.577.577,0,0,1-.41-.17l-1.108-1.109a.579.579,0,0,1,.819-.819l.7.7L84.3,74.374a.579.579,0,0,1,.819.819L83.336,76.98a.578.578,0,0,1-.41.17" transform="translate(-62.416 -57.325)"/>
        <path id="Trazado_978963" data-name="Trazado 978963" d="M212.369,99.264a1.345,1.345,0,0,1-.487-.092h0l-2.64-1.02a1.35,1.35,0,0,1-.773-1.746l4.7-12.179a.579.579,0,0,1,.749-.332L218,85.472a.579.579,0,0,1,.332.749l-4.7,12.179a1.353,1.353,0,0,1-1.259.865m-.07-1.172a.194.194,0,0,0,.147,0,.19.19,0,0,0,.1-.106l4.495-11.638-3-1.158-4.5,11.638a.193.193,0,0,0,.11.248Z" transform="translate(-160.097 -64.742)"/>
        <path id="Trazado_978964" data-name="Trazado 978964" d="M192.771,154.65a.58.58,0,0,1-.209-.039l-3.3-1.276a.579.579,0,0,1-.332-.749l4.685-12.132a.579.579,0,0,1,1.081.417l-4.477,11.592,2.224.859L196.9,141.76a.579.579,0,0,1,1.081.417l-4.674,12.1a.579.579,0,0,1-.54.371" transform="translate(-145.123 -107.941)"/>
        <path id="Trazado_978965" data-name="Trazado 978965" d="M233.563,74.283a.58.58,0,0,1-.54-.788l.893-2.312a1.607,1.607,0,1,0-3-1.158l-.893,2.312a.579.579,0,0,1-1.081-.417l.893-2.312A2.766,2.766,0,1,1,235,71.6l-.893,2.311a.579.579,0,0,1-.541.371" transform="translate(-175.868 -52.434)"/>
        <path id="Trazado_978966" data-name="Trazado 978966" d="M188.621,198.271a1.368,1.368,0,0,1-.493-.093,1.337,1.337,0,0,1-.857-1.39l.372-3.82a.579.579,0,1,1,1.153.112l-.372,3.82a.191.191,0,0,0,.343.133l2.292-3.079a.579.579,0,0,1,.929.692l-2.292,3.079a1.337,1.337,0,0,1-1.076.546" transform="translate(-143.876 -148.171)"/>
        <path id="Trazado_978967" data-name="Trazado 978967" d="M199.018,17.426h-4.324a1.93,1.93,0,0,1-1.928-1.928V11.079a.579.579,0,1,1,1.158,0V15.5a.77.77,0,0,0,.769.769h4.324a.579.579,0,1,1,0,1.158" transform="translate(-148.103 -8.381)"/>
        <path id="Trazado_978968" data-name="Trazado 978968" d="M98.477,119.67H87.339a1.489,1.489,0,0,1-1.487-1.487v-1.7a2.345,2.345,0,0,1,2.342-2.342h9.427a2.345,2.345,0,0,1,2.342,2.342v1.7a1.488,1.488,0,0,1-1.487,1.487M88.194,115.3a1.185,1.185,0,0,0-1.184,1.184v1.7a.329.329,0,0,0,.328.328H98.477a.328.328,0,0,0,.328-.328v-1.7a1.185,1.185,0,0,0-1.184-1.184Z" transform="translate(-65.961 -88.01)"/>
        <path id="Trazado_978969" data-name="Trazado 978969" d="M132.248,46.462a2.062,2.062,0,0,1-1.22-.4l-5.589-4.073a2.082,2.082,0,0,1,2.453-3.366l5.588,4.073a2.081,2.081,0,0,1-.9,3.739,2.107,2.107,0,0,1-.329.026m-5.578-7.077a.96.96,0,0,0-.147.012.924.924,0,0,0-.4,1.658l5.588,4.073a.929.929,0,0,0,1.291-.2h0a.929.929,0,0,0-.2-1.291l-5.589-4.073a.914.914,0,0,0-.54-.176" transform="translate(-95.719 -29.684)"/>
        <path id="Trazado_978970" data-name="Trazado 978970" d="M146.327,88.625a2.071,2.071,0,0,1-1.224-.4l-9.489-6.915a.579.579,0,1,1,.682-.936l9.489,6.915a.924.924,0,0,0,1.088-1.493l-9.463-6.9a.579.579,0,1,1,.682-.936l9.463,6.9a2.082,2.082,0,0,1-1.229,3.765" transform="translate(-104.01 -60.129)"/>
        <path id="Trazado_978971" data-name="Trazado 978971" d="M159.176,98.148a.579.579,0,0,1-.468-.921l1.46-2a.579.579,0,1,1,.936.682l-1.46,2a.579.579,0,0,1-.468.238" transform="translate(-121.851 -73.292)"/>
        <path id="Trazado_978972" data-name="Trazado 978972" d="M73.3,68.3a5.051,5.051,0,1,1,5.051-5.051A5.057,5.057,0,0,1,73.3,68.3m0-8.944a3.893,3.893,0,1,0,3.892,3.893A3.9,3.9,0,0,0,73.3,59.358" transform="translate(-52.437 -45.029)"/>
        <path id="Trazado_978973" data-name="Trazado 978973" d="M107.025,59.877a.579.579,0,0,1-.468-.921l5.032-6.9a.579.579,0,0,1,.936.682l-5.032,6.9a.579.579,0,0,1-.468.238" transform="translate(-81.783 -40.123)"/>
        <path id="Trazado_978974" data-name="Trazado 978974" d="M127.824,75.339a.579.579,0,0,1-.468-.921l5.127-7.034a.579.579,0,1,1,.936.682L128.293,75.1a.579.579,0,0,1-.468.238" transform="translate(-97.763 -51.903)"/>
        <path id="Trazado_978975" data-name="Trazado 978975" d="M105.336,90.968a2.072,2.072,0,0,1-1.224-.4l-5.026-3.663a.579.579,0,0,1,.682-.936l5.026,3.663a.924.924,0,0,0,1.089-1.493l-5.069-3.694a.579.579,0,1,1,.682-.936l5.069,3.694a2.082,2.082,0,0,1-1.229,3.765" transform="translate(-75.945 -64.389)"/>
      </g>
    </g>
  </g>
</svg>
